<svg width="24" height="24" viewBox="0 0 24 24" fill="none" xmlns="http://www.w3.org/2000/svg">
<g id="Photo-Four--Streamline-Core">
<g id="Vector">
<path d="M19.1 2H3.9C2.85067 2 2 2.3731 2 2.83333V9.5C2 9.96023 2.85067 10.3333 3.9 10.3333H19.1C20.1493 10.3333 21 9.96023 21 9.5V2.83333C21 2.3731 20.1493 2 19.1 2Z" stroke="white" stroke-linecap="round" stroke-linejoin="round"/>
<path d="M19.1 13.6667H3.9C2.85067 13.6667 2 14.0398 2 14.5V21.1667C2 21.6268 2.85067 22 3.9 22H19.1C20.1493 22 21 21.6268 21 21.1667V14.5C21 14.0398 20.1493 13.6667 19.1 13.6667Z" stroke="white" stroke-linecap="round" stroke-linejoin="round"/>
</g>
</g>
</svg>
