<svg width="24" height="24" viewBox="0 0 24 24" fill="none" xmlns="http://www.w3.org/2000/svg">
<g id="Photo-Four--Streamline-Core">
<g id="Photo-Four--Streamline-Core_2">
<path id="Vector" d="M9.54799 2.19922H3.01228C2.56108 2.19922 2.19531 2.56499 2.19531 3.01618V9.5519C2.19531 10.0031 2.56108 10.3689 3.01228 10.3689H9.54799C9.99918 10.3689 10.365 10.0031 10.365 9.5519V3.01618C10.365 2.56499 9.99918 2.19922 9.54799 2.19922Z" stroke="white" stroke-linecap="round" stroke-linejoin="round"/>
<path id="Vector_2" d="M20.9855 2.19922H14.4498C13.9986 2.19922 13.6328 2.56499 13.6328 3.01618V9.5519C13.6328 10.0031 13.9986 10.3689 14.4498 10.3689H20.9855C21.4366 10.3689 21.8025 10.0031 21.8025 9.5519V3.01618C21.8025 2.56499 21.4366 2.19922 20.9855 2.19922Z" stroke="white" stroke-linecap="round" stroke-linejoin="round"/>
<path id="Vector_3" d="M9.54799 13.6367H3.01228C2.56108 13.6367 2.19531 14.0025 2.19531 14.4537V20.9894C2.19531 21.4405 2.56108 21.8064 3.01228 21.8064H9.54799C9.99918 21.8064 10.365 21.4405 10.365 20.9894V14.4537C10.365 14.0025 9.99918 13.6367 9.54799 13.6367Z" stroke="white" stroke-linecap="round" stroke-linejoin="round"/>
<path id="Vector_4" d="M20.9855 13.6367H14.4498C13.9986 13.6367 13.6328 14.0025 13.6328 14.4537V20.9894C13.6328 21.4405 13.9986 21.8064 14.4498 21.8064H20.9855C21.4366 21.8064 21.8025 21.4405 21.8025 20.9894V14.4537C21.8025 14.0025 21.4366 13.6367 20.9855 13.6367Z" stroke="white" stroke-linecap="round" stroke-linejoin="round"/>
</g>
</g>
</svg>
