<svg width="24" height="24" viewBox="0 0 24 24" fill="none" xmlns="http://www.w3.org/2000/svg">
<path d="M10.2207 1.19922H5.58008C5.25971 1.19922 5 1.45893 5 1.7793V6.41992C5 6.74029 5.25971 7 5.58008 7H10.2207C10.5411 7 10.8008 6.74029 10.8008 6.41992V1.7793C10.8008 1.45893 10.5411 1.19922 10.2207 1.19922Z" stroke="white" stroke-width="0.710041" stroke-linecap="round" stroke-linejoin="round"/>
<path d="M18.3418 1.19922H13.7012C13.3808 1.19922 13.1211 1.45893 13.1211 1.7793V6.41992C13.1211 6.74029 13.3808 7 13.7012 7H18.3418C18.6621 7 18.9219 6.74029 18.9219 6.41992V1.7793C18.9219 1.45893 18.6621 1.19922 18.3418 1.19922Z" stroke="white" stroke-width="0.710041" stroke-linecap="round" stroke-linejoin="round"/>
<path d="M10.2207 9H5.58008C5.25971 9 5 9.25971 5 9.58008V14.2207C5 14.5411 5.25971 14.8008 5.58008 14.8008H10.2207C10.5411 14.8008 10.8008 14.5411 10.8008 14.2207V9.58008C10.8008 9.25971 10.5411 9 10.2207 9Z" stroke="white" stroke-width="0.710041" stroke-linecap="round" stroke-linejoin="round"/>
<path d="M18.3418 9H13.7012C13.3808 9 13.1211 9.25971 13.1211 9.58008V14.2207C13.1211 14.5411 13.3808 14.8008 13.7012 14.8008H18.3418C18.6621 14.8008 18.9219 14.5411 18.9219 14.2207V9.58008C18.9219 9.25971 18.6621 9 18.3418 9Z" stroke="white" stroke-width="0.710041" stroke-linecap="round" stroke-linejoin="round"/>
<path d="M10.2207 16.8008H5.58008C5.25971 16.8008 5 17.0605 5 17.3809V22.0215C5 22.3419 5.25971 22.6016 5.58008 22.6016H10.2207C10.5411 22.6016 10.8008 22.3419 10.8008 22.0215V17.3809C10.8008 17.0605 10.5411 16.8008 10.2207 16.8008Z" stroke="white" stroke-width="0.710041" stroke-linecap="round" stroke-linejoin="round"/>
<path d="M18.3418 16.8008H13.7012C13.3808 16.8008 13.1211 17.0605 13.1211 17.3809V22.0215C13.1211 22.3419 13.3808 22.6016 13.7012 22.6016H18.3418C18.6621 22.6016 18.9219 22.3419 18.9219 22.0215V17.3809C18.9219 17.0605 18.6621 16.8008 18.3418 16.8008Z" stroke="white" stroke-width="0.710041" stroke-linecap="round" stroke-linejoin="round"/>
</svg>
