<svg width="22" height="22" viewBox="0 0 22 22" fill="none" xmlns="http://www.w3.org/2000/svg">
<path d="M5.52361 1.19922H1.50262C1.22503 1.19922 1 1.42425 1 1.70184V5.72283C1 6.00042 1.22503 6.22545 1.50262 6.22545H5.52361C5.8012 6.22545 6.02623 6.00042 6.02623 5.72283V1.70184C6.02623 1.42425 5.8012 1.19922 5.52361 1.19922Z" stroke="white" stroke-linecap="round" stroke-linejoin="round"/>
<path d="M13.0104 1.19922H8.98944C8.71185 1.19922 8.48682 1.42425 8.48682 1.70184V5.72283C8.48682 6.00042 8.71185 6.22545 8.98944 6.22545H13.0104C13.288 6.22545 13.513 6.00042 13.513 5.72283V1.70184C13.513 1.42425 13.288 1.19922 13.0104 1.19922Z" stroke="white" stroke-linecap="round" stroke-linejoin="round"/>
<path d="M20.4972 1.19922H16.4763C16.1987 1.19922 15.9736 1.42425 15.9736 1.70184V5.72283C15.9736 6.00042 16.1987 6.22545 16.4763 6.22545H20.4972C20.7748 6.22545 20.9999 6.00042 20.9999 5.72283V1.70184C20.9999 1.42425 20.7748 1.19922 20.4972 1.19922Z" stroke="white" stroke-linecap="round" stroke-linejoin="round"/>
<path d="M5.52361 8.68555H1.50262C1.22503 8.68555 1 8.91058 1 9.18817V13.2092C1 13.4867 1.22503 13.7118 1.50262 13.7118H5.52361C5.8012 13.7118 6.02623 13.4867 6.02623 13.2092V9.18817C6.02623 8.91058 5.8012 8.68555 5.52361 8.68555Z" stroke="white" stroke-linecap="round" stroke-linejoin="round"/>
<path d="M13.0104 8.68555H8.98944C8.71185 8.68555 8.48682 8.91058 8.48682 9.18817V13.2092C8.48682 13.4867 8.71185 13.7118 8.98944 13.7118H13.0104C13.288 13.7118 13.513 13.4867 13.513 13.2092V9.18817C13.513 8.91058 13.288 8.68555 13.0104 8.68555Z" stroke="white" stroke-linecap="round" stroke-linejoin="round"/>
<path d="M20.4972 8.68555H16.4763C16.1987 8.68555 15.9736 8.91058 15.9736 9.18817V13.2092C15.9736 13.4867 16.1987 13.7118 16.4763 13.7118H20.4972C20.7748 13.7118 20.9999 13.4867 20.9999 13.2092V9.18817C20.9999 8.91058 20.7748 8.68555 20.4972 8.68555Z" stroke="white" stroke-linecap="round" stroke-linejoin="round"/>
<path d="M5.52361 16.1738H1.50262C1.22503 16.1738 1 16.3989 1 16.6765V20.6974C1 20.975 1.22503 21.2001 1.50262 21.2001H5.52361C5.8012 21.2001 6.02623 20.975 6.02623 20.6974V16.6765C6.02623 16.3989 5.8012 16.1738 5.52361 16.1738Z" stroke="white" stroke-linecap="round" stroke-linejoin="round"/>
<path d="M13.0104 16.1738H8.98944C8.71185 16.1738 8.48682 16.3989 8.48682 16.6765V20.6974C8.48682 20.975 8.71185 21.2001 8.98944 21.2001H13.0104C13.288 21.2001 13.513 20.975 13.513 20.6974V16.6765C13.513 16.3989 13.288 16.1738 13.0104 16.1738Z" stroke="white" stroke-linecap="round" stroke-linejoin="round"/>
<path d="M20.4972 16.1738H16.4763C16.1987 16.1738 15.9736 16.3989 15.9736 16.6765V20.6974C15.9736 20.975 16.1987 21.2001 16.4763 21.2001H20.4972C20.7748 21.2001 20.9999 20.975 20.9999 20.6974V16.6765C20.9999 16.3989 20.7748 16.1738 20.4972 16.1738Z" stroke="white" stroke-linecap="round" stroke-linejoin="round"/>
</svg>
