<svg width="16" height="16" viewBox="0 0 16 16" fill="none" xmlns="http://www.w3.org/2000/svg">
<g id="Alarm-Setting-Gear--Streamline-Core" clip-path="url(#clip0_8709_3964)">
<g id="Alarm-Setting-Gear--Streamline-Core_2">
<path id="Vector" d="M5.71484 15.4258H8.00056" stroke="white" stroke-linecap="round" stroke-linejoin="round"/>
<path id="Vector_2" d="M10.982 1.57568L11.2291 0.937991C11.2707 0.830022 11.344 0.737152 11.4393 0.671546C11.5347 0.60594 11.6476 0.570654 11.7633 0.570312H12.2344C12.3502 0.570654 12.4631 0.60594 12.5584 0.671546C12.6537 0.737152 12.727 0.830022 12.7687 0.937991L13.0158 1.57568L13.8545 2.05827L14.5324 1.95485C14.6453 1.93954 14.7601 1.95812 14.8624 2.00823C14.9648 2.05836 15.0499 2.13776 15.1069 2.23636L15.3367 2.63851C15.3956 2.73867 15.4228 2.85434 15.4145 2.97023C15.4063 3.08613 15.3632 3.19683 15.2908 3.2877L14.8713 3.82197V4.78714L15.3022 5.32142C15.3747 5.41228 15.4179 5.52298 15.426 5.63887C15.4342 5.75477 15.4071 5.87044 15.3483 5.9706L15.1184 6.37275C15.0614 6.47134 14.9763 6.55075 14.874 6.60087C14.7717 6.65099 14.6568 6.66957 14.5439 6.65426L13.866 6.55084L13.0272 7.03342L12.7803 7.67111C12.7385 7.77908 12.6653 7.87196 12.5699 7.93756C12.4745 8.00317 12.3616 8.03845 12.246 8.03879H11.7633C11.6476 8.03845 11.5347 8.00317 11.4393 7.93756C11.344 7.87196 11.2707 7.77908 11.2291 7.67111L10.982 7.03342L10.1432 6.55084L9.46534 6.65426C9.35246 6.66957 9.23758 6.65099 9.13528 6.60087C9.03298 6.55075 8.94791 6.47134 8.89085 6.37275L8.66104 5.9706C8.60216 5.87044 8.57503 5.75477 8.58323 5.63887C8.59144 5.52298 8.63459 5.41228 8.70701 5.32142L9.12639 4.78714V3.82197L8.69551 3.2877C8.62311 3.19683 8.57994 3.08613 8.57175 2.97023C8.56354 2.85434 8.59066 2.73867 8.64955 2.63851L8.87935 2.23636C8.93641 2.13776 9.0215 2.05836 9.12379 2.00823C9.22609 1.95812 9.34097 1.93954 9.45385 1.95485L10.1318 2.05827L10.982 1.57568Z" stroke="white" stroke-linecap="round" stroke-linejoin="round"/>
<path id="Ellipse 1473" d="M11.4258 4.3058C11.4258 4.45736 11.486 4.6027 11.5931 4.70986C11.7003 4.81703 11.8457 4.87723 11.9972 4.87723C12.1488 4.87723 12.2941 4.81703 12.4013 4.70986C12.5084 4.6027 12.5686 4.45736 12.5686 4.3058C12.5686 4.15425 12.5084 4.00891 12.4013 3.90174C12.2941 3.79458 12.1488 3.73438 11.9972 3.73438C11.8457 3.73438 11.7003 3.79458 11.5931 3.90174C11.486 4.00891 11.4258 4.15425 11.4258 4.3058Z" stroke="white" stroke-linecap="round" stroke-linejoin="round"/>
<path id="Vector_3" d="M11.4275 10.8551C11.4275 11.3097 11.608 11.7458 11.9295 12.0673C12.251 12.3888 12.6871 12.5693 13.1417 12.5693H0.570312C1.02497 12.5693 1.46101 12.3888 1.7825 12.0673C2.10398 11.7458 2.2846 11.3097 2.2846 10.8551V6.85505C2.2846 5.64263 2.76623 4.47988 3.62354 3.62256C4.33624 2.90985 5.26005 2.45679 6.24799 2.32422" stroke="white" stroke-linecap="round" stroke-linejoin="round"/>
</g>
</g>
<defs>
<clipPath id="clip0_8709_3964">
<rect width="16" height="16" fill="white"/>
</clipPath>
</defs>
</svg>
