<svg width="16" height="16" viewBox="0 0 16 16" fill="none" xmlns="http://www.w3.org/2000/svg">
<g id="Alarm-Setting-Bolt-Nut--Streamline-Core" clip-path="url(#clip0_8709_7517)">
<g id="Alarm-Setting-Bolt-Nut--Streamline-Core_2">
<path id="Vector" d="M5.71484 15.4258H8.00056" stroke="#238EFA" stroke-linecap="round" stroke-linejoin="round"/>
<path id="Rectangle 1920" d="M8.57031 2.57031L11.9989 0.570312L15.4275 2.57031V5.99888L11.9989 7.99888L8.57031 5.99888V2.57031Z" stroke="#238EFA" stroke-linecap="round" stroke-linejoin="round"/>
<path id="Ellipse 1472" d="M11.4258 4.28627C11.4258 4.43782 11.486 4.58317 11.5931 4.69033C11.7003 4.7975 11.8457 4.8577 11.9972 4.8577C12.1488 4.8577 12.2941 4.7975 12.4013 4.69033C12.5084 4.58317 12.5686 4.43782 12.5686 4.28627C12.5686 4.13472 12.5084 3.98938 12.4013 3.88221C12.2941 3.77505 12.1488 3.71484 11.9972 3.71484C11.8457 3.71484 11.7003 3.77505 11.5931 3.88221C11.486 3.98938 11.4258 4.13472 11.4258 4.28627Z" stroke="#238EFA" stroke-linecap="round" stroke-linejoin="round"/>
<path id="Vector_2" d="M11.4275 10.2861V10.8576C11.4275 11.3123 11.608 11.7483 11.9295 12.0698C12.251 12.3913 12.6871 12.5718 13.1417 12.5718H0.570312C1.02497 12.5718 1.46101 12.3913 1.7825 12.0698C2.10398 11.7483 2.2846 11.3123 2.2846 10.8576V6.85761C2.2846 5.64519 2.76623 4.48242 3.62354 3.62512C4.30264 2.94602 5.1734 2.50264 6.10869 2.34766" stroke="#238EFA" stroke-linecap="round" stroke-linejoin="round"/>
</g>
</g>
<defs>
<clipPath id="clip0_8709_7517">
<rect width="16" height="16" fill="white"/>
</clipPath>
</defs>
</svg>
