<svg width="33" height="32" viewBox="0 0 33 32" fill="none" xmlns="http://www.w3.org/2000/svg">
<g id="Block-Bell-Notification--Streamline-Core">
<g id="Block-Bell-Notification--Streamline-Core_2">
<path id="Vector" d="M23.2042 21.4469C23.2042 22.3136 23.5485 23.1448 24.1613 23.7576C24.7741 24.3704 25.6055 24.7147 26.4721 24.7147H2.50781C3.3745 24.7147 4.2057 24.3704 4.81854 23.7576C5.43137 23.1448 5.77567 22.3136 5.77567 21.4469V13.8219C5.77567 11.5107 6.69379 9.29422 8.32802 7.65997C9.34613 6.64186 10.5902 5.90169 11.9424 5.48828" stroke="white" stroke-width="1.5" stroke-linecap="round" stroke-linejoin="round"/>
<path id="Vector_2" d="M12.3105 30.1621H16.6677" stroke="white" stroke-width="1.5" stroke-linecap="round" stroke-linejoin="round"/>
<path id="Vector_3" d="M23.7483 16.0006C19.8379 16.0006 16.668 12.8306 16.668 8.9202C16.668 5.00982 19.8379 1.83984 23.7483 1.83984C27.6586 1.83984 30.8287 5.00982 30.8287 8.9202C30.8287 12.8306 27.6586 16.0006 23.7483 16.0006Z" stroke="white" stroke-width="1.5" stroke-linecap="round" stroke-linejoin="round"/>
<path id="Vector_4" d="M28.7596 13.9316L18.7383 3.91016" stroke="white" stroke-width="1.5" stroke-linecap="round" stroke-linejoin="round"/>
</g>
</g>
</svg>
