<svg width="16" height="16" viewBox="0 0 16 16" fill="none" xmlns="http://www.w3.org/2000/svg">
<g id="Ringing-Bell-Notification--Streamline-Core" clip-path="url(#clip0_8709_1259)">
<g id="Ringing-Bell-Notification--Streamline-Core_2">
<path id="Vector" d="M6.85547 15.4258H9.14118" stroke="#238EFA" stroke-linecap="round" stroke-linejoin="round"/>
<path id="Vector_2" d="M12.572 7.14174C12.572 5.92932 12.0904 4.76656 11.233 3.90925C10.3757 3.05195 9.21298 2.57031 8.00056 2.57031C6.78814 2.57031 5.62538 3.05195 4.76807 3.90925C3.91076 4.76656 3.42913 5.92932 3.42913 7.14174V11.1417C3.42913 11.5964 3.24851 12.0325 2.92703 12.354C2.60554 12.6755 2.1695 12.856 1.71484 12.856H14.2863C13.8316 12.856 13.3955 12.6755 13.074 12.354C12.7526 12.0325 12.572 11.5964 12.572 11.1417V7.14174Z" stroke="#238EFA" stroke-linecap="round" stroke-linejoin="round"/>
<path id="Vector_3" d="M0.570312 6.13603C0.570928 5.04819 0.830351 3.97611 1.32716 3.00834C1.82396 2.04056 2.54388 1.20488 3.42746 0.570312" stroke="#238EFA" stroke-linecap="round" stroke-linejoin="round"/>
<path id="Vector_4" d="M15.4275 6.13603C15.4269 5.04819 15.1675 3.97611 14.6707 3.00834C14.1739 2.04056 13.4539 1.20488 12.5703 0.570312" stroke="#238EFA" stroke-linecap="round" stroke-linejoin="round"/>
</g>
</g>
<defs>
<clipPath id="clip0_8709_1259">
<rect width="16" height="16" fill="white"/>
</clipPath>
</defs>
</svg>
