<svg width="33" height="32" viewBox="0 0 33 32" fill="none" xmlns="http://www.w3.org/2000/svg">
<g id="Padlock-Shield--Streamline-Core">
<g id="Padlock-Shield--Streamline-Core_2">
<path id="Vector 3823" d="M10.8848 20.356V14.9096C10.8848 14.308 11.3725 13.8203 11.9741 13.8203H20.6883C21.2899 13.8203 21.7776 14.308 21.7776 14.9096V20.356C21.7776 20.9576 21.2899 21.4453 20.6883 21.4453H11.9741C11.3725 21.4453 10.8848 20.9576 10.8848 20.356Z" stroke="white" stroke-width="1.5" stroke-linecap="round" stroke-linejoin="round"/>
<path id="Vector 3824" d="M12.5195 13.8209V11.0977C12.5195 8.99207 14.2264 7.28516 16.332 7.28516C18.4376 7.28516 20.1445 8.99207 20.1445 11.0977V13.8209" stroke="white" stroke-width="1.5" stroke-linecap="round" stroke-linejoin="round"/>
<path id="Vector 3821" d="M27.2241 2.92773H5.43834C4.23516 2.92773 3.25977 3.90312 3.25977 5.10631V10.9349C3.25977 19.1633 8.52507 26.4685 16.3312 29.0706C24.1372 26.4685 29.4026 19.1633 29.4026 10.9349V5.10631C29.4026 3.90312 28.4273 2.92773 27.2241 2.92773Z" stroke="white" stroke-width="1.5" stroke-linecap="round" stroke-linejoin="round"/>
</g>
</g>
</svg>
