<svg width="24" height="24" viewBox="0 0 24 24" fill="none" xmlns="http://www.w3.org/2000/svg">
<g id="Volume-Level-High--Streamline-Core">
<g id="Volume-Level-High--Streamline-Core_2">
<path id="Vector" d="M21.4209 18C22.5175 16.1888 23.1095 14.1171 23.1352 12C23.1095 9.88286 22.5175 7.81118 21.4209 6" stroke="white" stroke-linecap="round" stroke-linejoin="round"/>
<path id="Vector_2" d="M18 9.42969C18.5959 10.1502 18.9015 11.0671 18.8571 12.0011C18.9015 12.9351 18.5959 13.852 18 14.5725" stroke="white" stroke-linecap="round" stroke-linejoin="round"/>
<path id="Vector_3" d="M5.14314 8.56241H2.57171C1.63799 8.56241 0.857422 9.34534 0.857422 10.2819V13.7209C0.857422 14.6574 1.63799 15.4404 2.57171 15.4404H5.14314L10.9889 21.1318C12.0951 21.8996 13.6846 21.0912 13.7146 19.7391V4.26363C13.7467 2.91066 12.2525 2.10097 11.1431 2.87084L5.14314 8.56241Z" stroke="white" stroke-linecap="round" stroke-linejoin="round"/>
</g>
</g>
</svg>
