<svg width="32" height="32" viewBox="0 0 32 32" fill="none" xmlns="http://www.w3.org/2000/svg">
<g id="Webcam-Video--Streamline-Core">
<g id="Webcam-Video--Streamline-Core_2">
<path id="Vector" d="M28.6798 8.9202L22.5363 11.6434V7.83091C22.5363 7.25311 22.3067 6.69899 21.8982 6.29043C21.4896 5.88188 20.9355 5.65234 20.3577 5.65234H4.01841C3.44061 5.65234 2.88649 5.88188 2.47793 6.29043C2.06937 6.69899 1.83984 7.25311 1.83984 7.83091V24.1702C1.83984 24.748 2.06937 25.3022 2.47793 25.7107C2.88649 26.1192 3.44061 26.3488 4.01841 26.3488H20.3577C20.9355 26.3488 21.4896 26.1192 21.8982 25.7107C22.3067 25.3022 22.5363 24.748 22.5363 24.1702V20.3577L28.6798 23.0809C28.8454 23.1447 29.0243 23.1674 29.2005 23.1463C29.3768 23.1254 29.5454 23.0617 29.6914 22.9607C29.8373 22.8598 29.9565 22.7247 30.0384 22.5672C30.1203 22.4097 30.1626 22.2345 30.1613 22.057V9.94413C30.1626 9.7666 30.1203 9.59144 30.0384 9.43393C29.9565 9.27642 29.8373 9.1413 29.6914 9.04037C29.5454 8.93942 29.3768 8.87571 29.2005 8.85476C29.0243 8.83382 28.8454 8.85628 28.6798 8.9202Z" stroke="white" stroke-width="1.5" stroke-linecap="round" stroke-linejoin="round"/>
</g>
</g>
</svg>
