<svg width="32" height="32" viewBox="0 0 32 32" fill="none" xmlns="http://www.w3.org/2000/svg">
<g id="Charging--Streamline-Core" clip-path="url(#clip0_8950_12414)">
<g id="Charging--Streamline-Core_2">
<path id="Vector" d="M30.8527 15.9977C30.8527 7.79235 24.2011 1.14062 15.9957 1.14062C7.7904 1.14062 1.13867 7.79235 1.13867 15.9977" stroke="white" stroke-width="1.5" stroke-linecap="round" stroke-linejoin="round"/>
<path id="Vector_2" d="M17.2938 7.57031V14.0538H23.1291L14.7004 24.4275V17.9439H8.86523L17.2938 7.57031Z" stroke="white" stroke-width="1.5" stroke-linecap="round" stroke-linejoin="round"/>
<path id="Vector_3" d="M2.39648 21.9609C2.85123 23.019 3.43468 24.017 4.13363 24.9324C4.79573 25.8492 5.56284 26.6853 6.41934 27.4238" stroke="white" stroke-width="1.5" stroke-linecap="round" stroke-linejoin="round"/>
<path id="Vector_4" d="M29.7084 21.9609C29.2538 23.019 28.6702 24.017 27.9713 24.9324C27.3093 25.8492 26.5422 26.6853 25.6855 27.4238" stroke="white" stroke-width="1.5" stroke-linecap="round" stroke-linejoin="round"/>
<path id="Vector_5" d="M12.5684 30.4688C14.8247 30.9869 17.1692 30.9869 19.4255 30.4688" stroke="white" stroke-width="1.5" stroke-linecap="round" stroke-linejoin="round"/>
</g>
</g>
<defs>
<clipPath id="clip0_8950_12414">
<rect width="32" height="32" fill="white" transform="translate(-0.00195312)"/>
</clipPath>
</defs>
</svg>
