<svg width="24" height="24" viewBox="0 0 24 24" fill="none" xmlns="http://www.w3.org/2000/svg">
<g id="Countdown-Timer--Streamline-Core" clip-path="url(#clip0_6356_138803)">
<g id="Countdown-Timer--Streamline-Core_2">
<path id="Vector" d="M23.1397 11.8633C23.123 13.7681 22.6902 15.6463 21.8711 17.3661" stroke="white" stroke-linecap="round" stroke-linejoin="round"/>
<path id="Vector_2" d="M11.9944 23.0061C10.5311 23.0061 9.08214 22.718 7.73024 22.1579C6.37832 21.598 5.14995 20.7772 4.11524 19.7425C2.02554 17.6528 0.851562 14.8186 0.851562 11.8633" stroke="white" stroke-linecap="round" stroke-linejoin="round"/>
<path id="Vector_3" d="M11.9961 6.00391V12.0039H16.2818" stroke="white" stroke-linecap="round" stroke-linejoin="round"/>
<path id="Vector_4" d="M20.5675 22.1507C21.9876 22.1507 23.139 20.9994 23.139 19.5792C23.139 18.1591 21.9876 17.0078 20.5675 17.0078C19.1474 17.0078 17.9961 18.1591 17.9961 19.5792C17.9961 20.9994 19.1474 22.1507 20.5675 22.1507Z" stroke="white" stroke-linecap="round" stroke-linejoin="round"/>
<path id="Vector_5" d="M1.57031 7.75025C1.94392 6.81658 2.4459 5.93955 3.06174 5.14453" stroke="white" stroke-linecap="round" stroke-linejoin="round"/>
<path id="Vector_6" d="M6.37109 2.19609C7.3372 1.63824 8.38391 1.23344 9.47395 0.996094" stroke="white" stroke-linecap="round" stroke-linejoin="round"/>
<path id="Vector_7" d="M22.4172 7.75025C22.0437 6.81658 21.5417 5.93955 20.9258 5.14453" stroke="white" stroke-linecap="round" stroke-linejoin="round"/>
<path id="Vector_8" d="M17.6185 2.19609C16.6524 1.63824 15.6057 1.23344 14.5156 0.996094" stroke="white" stroke-linecap="round" stroke-linejoin="round"/>
</g>
</g>
<defs>
<clipPath id="clip0_6356_138803">
<rect width="24" height="24" fill="white"/>
</clipPath>
</defs>
</svg>
