<svg width="33" height="33" viewBox="0 0 33 33" fill="none" xmlns="http://www.w3.org/2000/svg">
<g id="Quiet Zone" clip-path="url(#clip0_8950_12400)">
<g id="quiet-zone">
<path id="Vector" d="M30.8813 31.4599V30.1662C30.8813 28.9538 30.3997 27.791 29.5423 26.9337C28.685 26.0764 27.5223 25.5948 26.3099 25.5948H23.9464V19.7662C23.9464 19.16 23.7056 18.5786 23.277 18.1499C22.8483 17.7213 22.2669 17.4805 21.6607 17.4805C21.0545 17.4805 20.4731 17.7213 20.0445 18.1499C19.6158 18.5786 19.375 19.16 19.375 19.7662V31.4599" stroke="white" stroke-width="1.5" stroke-linecap="round" stroke-linejoin="round"/>
<path id="Vector_2" d="M2.16211 2.24023C6.66268 2.24023 8.63525 3.46538 10.8478 6.78881L16.2535 16.6517C16.3685 16.9683 16.4055 17.3079 16.3613 17.6419C16.3172 17.9758 16.1932 18.2942 15.9999 18.57C15.8066 18.8458 15.5496 19.071 15.2508 19.2265C14.952 19.382 14.6201 19.4631 14.2833 19.4631H12.185V23.6528C12.185 24.2087 11.9641 24.7418 11.5711 25.1349C11.178 25.528 10.6449 25.7488 10.089 25.7488H5.89925V31.4608" stroke="white" stroke-width="1.5" stroke-linecap="round" stroke-linejoin="round"/>
</g>
</g>
<defs>
<clipPath id="clip0_8950_12400">
<rect width="32" height="32" fill="white" transform="translate(0.734375 0.734375)"/>
</clipPath>
</defs>
</svg>
