<svg width="32" height="32" viewBox="0 0 32 32" fill="none" xmlns="http://www.w3.org/2000/svg">
<g id="Align-Right-Frame--Streamline-Core">
<g id="Align-Right-Frame--Streamline-Core_2">
<path id="Vector" d="M22.8594 2.28906H27.4308C28.037 2.28906 28.6185 2.52989 29.047 2.95853C29.4756 3.38719 29.7165 3.96856 29.7165 4.57478V9.14621" stroke="white" stroke-width="1.5" stroke-linecap="round" stroke-linejoin="round"/>
<path id="Vector_2" d="M2.28906 9.14621V4.57478C2.28906 3.96856 2.52989 3.38719 2.95853 2.95853C3.38719 2.52989 3.96856 2.28906 4.57478 2.28906H9.14621" stroke="white" stroke-width="1.5" stroke-linecap="round" stroke-linejoin="round"/>
<path id="Vector_3" d="M22.8594 29.7165H27.4308C28.037 29.7165 28.6185 29.4756 29.047 29.047C29.4756 28.6185 29.7165 28.037 29.7165 27.4308V22.8594" stroke="white" stroke-width="1.5" stroke-linecap="round" stroke-linejoin="round"/>
<path id="Vector_4" d="M2.28906 22.8594V27.4308C2.28906 28.037 2.52989 28.6185 2.95853 29.047C3.38719 29.4756 3.96856 29.7165 4.57478 29.7165H9.14621" stroke="white" stroke-width="1.5" stroke-linecap="round" stroke-linejoin="round"/>
<path id="Vector 3613" d="M21.7188 9.14844V22.8627" stroke="white" stroke-width="1.5" stroke-linecap="round" stroke-linejoin="round"/>
</g>
</g>
</svg>
