<svg width="48" height="48" viewBox="0 0 48 48" fill="none" xmlns="http://www.w3.org/2000/svg">
<g id="Technology Iot Electronics Robot Vacuum">
<path id="Vector" d="M3.57031 27.8718C3.57031 30.4216 5.72275 32.867 9.55412 34.6699C13.3855 36.4729 18.5819 37.4858 24.0003 37.4858C29.4187 37.4858 34.6151 36.4729 38.4465 34.6699C42.2779 32.867 44.4303 30.4216 44.4303 27.8718C44.4303 25.322 42.2779 22.8767 38.4465 21.0737C34.6151 19.2707 29.4187 18.2578 24.0003 18.2578C18.5819 18.2578 13.3855 19.2707 9.55412 21.0737C5.72275 22.8767 3.57031 25.322 3.57031 27.8718Z" stroke="white" stroke-width="3" stroke-linecap="round" stroke-linejoin="round"/>
<path id="Vector_2" d="M44.4303 27.8711V36.8851C44.4303 42.1951 35.2843 46.4991 24.0003 46.4991C12.7163 46.4991 3.57031 42.1991 3.57031 36.8851V27.8711" stroke="white" stroke-width="3" stroke-linecap="round" stroke-linejoin="round"/>
<path id="Vector_3" d="M38.6547 21.1738C35.7647 24.4558 30.2847 26.6698 24.0007 26.6698C17.7167 26.6698 12.2367 24.4558 9.34668 21.1738" stroke="white" stroke-width="3" stroke-linecap="round" stroke-linejoin="round"/>
<path id="Vector_4" d="M22.7998 32.0781H25.2038" stroke="white" stroke-width="3" stroke-linecap="round" stroke-linejoin="round"/>
<path id="Vector_5" d="M11.2715 6.77216C12.9429 5.10068 14.9273 3.77479 17.1111 2.87019C19.295 1.96559 21.6357 1.5 23.9995 1.5C26.3633 1.5 28.704 1.96559 30.8878 2.87019C33.0717 3.77479 35.056 5.10068 36.7275 6.77216" stroke="white" stroke-width="3" stroke-linecap="round" stroke-linejoin="round"/>
<path id="Vector_6" d="M16.7246 12.2282C17.6798 11.2729 18.8138 10.5151 20.0619 9.99801C21.31 9.48097 22.6477 9.21484 23.9986 9.21484C25.3496 9.21484 26.6873 9.48097 27.9353 9.99801C29.1834 10.5151 30.3174 11.2729 31.2726 12.2282" stroke="white" stroke-width="3" stroke-linecap="round" stroke-linejoin="round"/>
</g>
</svg>
