<svg width="48" height="48" viewBox="0 0 48 48" fill="none" xmlns="http://www.w3.org/2000/svg">
<g id="Interface Lighting Light Bulb">
<g id="Group">
<path id="Vector" d="M39.4193 17.1367C39.4383 14.3827 38.7198 11.6739 37.3384 9.29135C35.957 6.90882 33.9631 4.93948 31.5636 3.58777C29.1641 2.23606 26.4466 1.55125 23.6931 1.60444C20.9396 1.65763 18.2505 2.44689 15.905 3.89026C13.5595 5.33364 11.6431 7.37852 10.3548 9.81262C9.06645 12.2467 8.45313 14.9813 8.5785 17.7325C8.70386 20.4836 9.56335 23.1511 11.0677 25.4579C12.5721 27.7648 14.6665 29.6269 17.1336 30.851V35.9938C17.1336 36.4485 17.3142 36.8845 17.6357 37.206C17.9572 37.5275 18.3932 37.7081 18.8478 37.7081H29.1336C29.5882 37.7081 30.0243 37.5275 30.3457 37.206C30.6672 36.8845 30.8478 36.4485 30.8478 35.9938V30.851C33.4106 29.5883 35.5705 27.6359 37.0847 25.2133C38.5988 22.7906 39.4073 19.9936 39.4193 17.1367Z" stroke="white" stroke-width="3.17281" stroke-linecap="round" stroke-linejoin="round"/>
<path id="Vector_2" d="M17.1328 46.2773H30.8471" stroke="white" stroke-width="3.17281" stroke-linecap="round" stroke-linejoin="round"/>
</g>
</g>
</svg>
