<svg width="48" height="47" viewBox="0 0 48 47" fill="none" xmlns="http://www.w3.org/2000/svg">
<g id="Light Mode Sunny" clip-path="url(#clip0_3694_116632)">
<path id="Vector" d="M14.8789 23.3359C14.8789 25.6732 15.8271 27.9147 17.5149 29.5673C19.2028 31.22 21.492 32.1484 23.8789 32.1484C26.2659 32.1484 28.555 31.22 30.2429 29.5673C31.9307 27.9147 32.8789 25.6732 32.8789 23.3359C32.8789 20.9987 31.9307 18.7572 30.2429 17.1046C28.555 15.4519 26.2659 14.5234 23.8789 14.5234C21.492 14.5234 19.2028 15.4519 17.5149 17.1046C15.8271 18.7572 14.8789 20.9987 14.8789 23.3359Z" stroke="white" stroke-width="1.5" stroke-linecap="round" stroke-linejoin="round"/>
<path id="Ellipse 1148" d="M14.8789 23.3359C14.8789 24.4932 15.1117 25.6392 15.564 26.7083C16.0163 27.7775 16.6792 28.749 17.5149 29.5673C18.3507 30.3856 19.3428 31.0348 20.4348 31.4776C21.5267 31.9205 22.697 32.1484 23.8789 32.1484V23.3359L14.8789 23.3359Z" fill="#FFF730"/>
<path id="Vector_2" d="M23.8789 1.30469V8.64844" stroke="white" stroke-width="1.5" stroke-linecap="round" stroke-linejoin="round"/>
<path id="Vector_3" d="M23.8789 38.0234V45.3672" stroke="white" stroke-width="1.5" stroke-linecap="round" stroke-linejoin="round"/>
<path id="Vector_4" d="M46.3789 23.3359H38.8789" stroke="white" stroke-width="1.5" stroke-linecap="round" stroke-linejoin="round"/>
<path id="Vector_5" d="M8.87891 23.3359H1.37891" stroke="white" stroke-width="1.5" stroke-linecap="round" stroke-linejoin="round"/>
<path id="Vector_6" d="M40.3789 7.18359L34.3789 13.0586" stroke="white" stroke-width="1.5" stroke-linecap="round" stroke-linejoin="round"/>
<path id="Vector_7" d="M13.375 33.6172L7.375 39.4922" stroke="white" stroke-width="1.5" stroke-linecap="round" stroke-linejoin="round"/>
<path id="Vector_8" d="M40.3789 39.4922L34.3789 33.6172" stroke="white" stroke-width="1.5" stroke-linecap="round" stroke-linejoin="round"/>
<path id="Vector_9" d="M13.375 13.0586L7.375 7.18359" stroke="white" stroke-width="1.5" stroke-linecap="round" stroke-linejoin="round"/>
</g>
<defs>
<clipPath id="clip0_3694_116632">
<rect width="48" height="47" fill="white"/>
</clipPath>
</defs>
</svg>
