<svg width="20" height="20" viewBox="0 0 20 20" fill="none" xmlns="http://www.w3.org/2000/svg">
<g id="Button Play">
<g id="button-play--button-television-buttons-movies-play-tv-video-controls">
<path id="Vector" d="M3.39648 16.8656C3.40104 17.1298 3.4779 17.3876 3.6187 17.6111C3.7595 17.8346 3.95888 18.0153 4.19514 18.1333C4.43107 18.2666 4.69745 18.3368 4.96844 18.3368C5.23942 18.3368 5.50582 18.2666 5.74174 18.1333L16.7074 11.3511C16.9459 11.2362 17.1472 11.0562 17.2882 10.832C17.4291 10.6077 17.5037 10.3483 17.5037 10.0834C17.5037 9.81859 17.4291 9.55913 17.2882 9.33487C17.1472 9.11062 16.9459 8.93067 16.7074 8.81572L5.74174 2.08422C5.50582 1.95091 5.23942 1.88086 4.96844 1.88086C4.69745 1.88086 4.43107 1.95091 4.19514 2.08422C3.95888 2.20236 3.7595 2.38299 3.6187 2.60649C3.4779 2.82999 3.40104 3.08781 3.39648 3.35193V16.8656Z" fill="white" stroke="white" stroke-width="1.25" stroke-linecap="round" stroke-linejoin="round"/>
</g>
</g>
</svg>
