<svg width="16" height="16" viewBox="0 0 16 16" fill="none" xmlns="http://www.w3.org/2000/svg">
<g id="Blank Notepad" opacity="0.8" clip-path="url(#clip0_4119_177650)">
<g id="blank-notepad--content-notes-book-notepad-notebook" opacity="0.8">
<path id="Vector" d="M4.57422 3.99888V0.570312" stroke="white" stroke-linecap="round" stroke-linejoin="round"/>
<path id="Vector_2" d="M8.00195 3.99888V0.570312" stroke="white" stroke-linecap="round" stroke-linejoin="round"/>
<path id="Vector_3" d="M11.4316 3.99888V0.570312" stroke="white" stroke-linecap="round" stroke-linejoin="round"/>
<path id="Vector_4" d="M14.2885 2.28516H1.71708C1.41397 2.28516 1.12328 2.40556 0.908954 2.61989C0.694627 2.83422 0.574219 3.12491 0.574219 3.42801V14.2852C0.574219 14.5883 0.694627 14.879 0.908954 15.0933C1.12328 15.3076 1.41397 15.428 1.71708 15.428H14.2885C14.5916 15.428 14.8823 15.3076 15.0966 15.0933C15.311 14.879 15.4314 14.5883 15.4314 14.2852V3.42801C15.4314 3.12491 15.311 2.83422 15.0966 2.61989C14.8823 2.40556 14.5916 2.28516 14.2885 2.28516Z" stroke="white" stroke-linecap="round" stroke-linejoin="round"/>
</g>
</g>
<defs>
<clipPath id="clip0_4119_177650">
<rect width="16" height="16" fill="white"/>
</clipPath>
</defs>
</svg>
