<svg width="16" height="16" viewBox="0 0 16 16" fill="none" xmlns="http://www.w3.org/2000/svg">
<g id="Dashboard 4" opacity="0.8" clip-path="url(#clip0_4119_177707)">
<g id="dashboard-3--app-application-dashboard-home-layout-vertical" opacity="0.8">
<path id="Vector" d="M14.8597 7.42578H10.2882C10.1367 7.42578 9.99133 7.48599 9.88416 7.59315C9.777 7.70031 9.7168 7.84566 9.7168 7.99721V14.8544C9.7168 15.0059 9.777 15.1513 9.88416 15.2584C9.99133 15.3656 10.1367 15.4258 10.2882 15.4258H14.8597C15.0112 15.4258 15.1566 15.3656 15.2637 15.2584C15.3709 15.1513 15.4311 15.0059 15.4311 14.8544V7.99721C15.4311 7.84566 15.3709 7.70031 15.2637 7.59315C15.1566 7.48599 15.0112 7.42578 14.8597 7.42578Z" stroke="white" stroke-linecap="round" stroke-linejoin="round"/>
<path id="Vector_2" d="M14.8597 0.570312H10.2882C10.1367 0.570313 9.99133 0.630516 9.88416 0.73768C9.777 0.844844 9.7168 0.990189 9.7168 1.14174V3.43888C9.7168 3.59044 9.777 3.73578 9.88416 3.84294C9.99133 3.95011 10.1367 4.01031 10.2882 4.01031H14.8597C15.0112 4.01031 15.1566 3.95011 15.2637 3.84294C15.3709 3.73578 15.4311 3.59044 15.4311 3.43888V1.14174C15.4311 0.990189 15.3709 0.844844 15.2637 0.73768C15.1566 0.630516 15.0112 0.570313 14.8597 0.570312Z" stroke="white" stroke-linecap="round" stroke-linejoin="round"/>
<path id="Vector_3" d="M5.71708 0.570312H1.14565C0.994095 0.570313 0.84875 0.630516 0.741586 0.73768C0.634423 0.844844 0.574219 0.990189 0.574219 1.14174V7.99888C0.574219 8.15044 0.634423 8.29578 0.741586 8.40295C0.84875 8.51011 0.994095 8.57031 1.14565 8.57031H5.71708C5.86863 8.57031 6.01397 8.51011 6.12114 8.40295C6.2283 8.29578 6.2885 8.15044 6.2885 7.99888V1.14174C6.2885 0.990189 6.2283 0.844844 6.12114 0.73768C6.01397 0.630516 5.86863 0.570313 5.71708 0.570312Z" stroke="white" stroke-linecap="round" stroke-linejoin="round"/>
<path id="Vector_4" d="M5.71708 11.9883H1.14565C0.994095 11.9883 0.84875 12.0485 0.741586 12.1556C0.634423 12.2628 0.574219 12.4082 0.574219 12.5597V14.8569C0.574219 15.0084 0.634423 15.1538 0.741586 15.2609C0.84875 15.3681 0.994095 15.4283 1.14565 15.4283H5.71708C5.86863 15.4283 6.01397 15.3681 6.12114 15.2609C6.2283 15.1538 6.2885 15.0084 6.2885 14.8569V12.5597C6.2885 12.4082 6.2283 12.2628 6.12114 12.1556C6.01397 12.0485 5.86863 11.9883 5.71708 11.9883Z" stroke="white" stroke-linecap="round" stroke-linejoin="round"/>
</g>
</g>
<defs>
<clipPath id="clip0_4119_177707">
<rect width="16" height="16" fill="white"/>
</clipPath>
</defs>
</svg>
