<svg width="16" height="16" viewBox="0 0 16 16" fill="none" xmlns="http://www.w3.org/2000/svg">
<g id="Landscape 1" opacity="0.8" clip-path="url(#clip0_4119_177673)">
<g id="landscape-1--photos-photo-landscape-picture-photography-camera-pictures-image" opacity="0.8">
<path id="Vector" opacity="0.8" d="M1.71512 15.4275H14.2866C14.9178 15.4275 15.4294 14.9158 15.4294 14.2846V1.71317C15.4294 1.08199 14.9178 0.570312 14.2866 0.570312H1.71512C1.08394 0.570312 0.572266 1.08199 0.572266 1.71317V14.2846C0.572266 14.9158 1.08394 15.4275 1.71512 15.4275Z" stroke="white" stroke-linecap="round" stroke-linejoin="round"/>
<path id="Vector_2" opacity="0.8" d="M10.5605 7.42969C11.6651 7.42969 12.5606 6.53426 12.5606 5.42969C12.5606 4.32512 11.6651 3.42969 10.5605 3.42969C9.45598 3.42969 8.56055 4.32512 8.56055 5.42969C8.56055 6.53426 9.45598 7.42969 10.5605 7.42969Z" stroke="white" stroke-linecap="round" stroke-linejoin="round"/>
<path id="Vector_3" opacity="0.8" d="M10.7318 15.4257C10.3638 13.4657 9.3114 11.7002 7.76236 10.4442C6.21331 9.18823 4.26841 8.52347 2.27467 8.56856C1.70413 8.56704 1.13476 8.61972 0.574219 8.72593" stroke="white" stroke-linecap="round" stroke-linejoin="round"/>
<path id="Vector_4" opacity="0.8" d="M15.4187 11.3241C14.4982 11.0132 13.5331 10.8549 12.5615 10.8555C11.3317 10.8528 10.1144 11.1017 8.98438 11.5869" stroke="white" stroke-linecap="round" stroke-linejoin="round"/>
</g>
</g>
<defs>
<clipPath id="clip0_4119_177673">
<rect width="16" height="16" fill="white"/>
</clipPath>
</defs>
</svg>
