<svg width="35" height="34" viewBox="0 0 35 34" fill="none" xmlns="http://www.w3.org/2000/svg">
<g id="Siri">
<g id="Group 1000003411">
<g id="Ellipse 203">
<circle cx="17.5287" cy="17.5912" r="12.5521" fill="#000115"/>
<circle cx="17.5287" cy="17.5912" r="12.5521" fill="url(#paint0_radial_3750_122326)" fill-opacity="0.45"/>
<circle cx="17.5287" cy="17.5912" r="12.5521" fill="url(#paint1_radial_3750_122326)" fill-opacity="0.8"/>
<circle cx="17.5287" cy="17.5912" r="12.5521" fill="url(#paint2_radial_3750_122326)" fill-opacity="0.6"/>
<circle cx="17.5287" cy="17.5912" r="12.5521" fill="url(#paint3_radial_3750_122326)" fill-opacity="0.5"/>
</g>
<g id="Intersect">
<path d="M8.17089 20.0569C8.23073 20.1991 8.28034 20.3312 8.30367 20.4475C8.60796 21.9653 10.1203 22.9431 11.9526 23.6809C13.8852 24.4591 17.0775 25.6474 19.025 23.9969C20.1284 23.0619 20.4135 20.9233 20.1819 18.8469C19.971 16.9553 19.3439 15.1246 18.2689 14.1199C17.9996 13.8681 17.6414 13.599 17.2163 13.3628C14.626 12.1614 12.4691 12.4912 10.3566 14.8413C8.24407 17.1913 8.08047 17.825 8.17089 20.0569Z" fill="url(#paint4_linear_3750_122326)" fill-opacity="0.7"/>
<path d="M8.17089 20.0569C8.23073 20.1991 8.28034 20.3312 8.30367 20.4475C8.60796 21.9653 10.1203 22.9431 11.9526 23.6809C13.8852 24.4591 17.0775 25.6474 19.025 23.9969C20.1284 23.0619 20.4135 20.9233 20.1819 18.8469C19.971 16.9553 19.3439 15.1246 18.2689 14.1199C17.9996 13.8681 17.6414 13.599 17.2163 13.3628C14.626 12.1614 12.4691 12.4912 10.3566 14.8413C8.24407 17.1913 8.08047 17.825 8.17089 20.0569Z" fill="url(#paint5_linear_3750_122326)" fill-opacity="0.2"/>
</g>
<path id="blue-right" d="M14.2218 20.9671C16.4618 23.395 21.1204 24.218 24.0026 22.5676C26.8849 20.9172 27.5451 18.5836 27.4395 16.6454C27.3338 14.7071 26.0473 10.7757 21.507 10.6328C16.9667 10.4898 15.054 12.763 12.8979 15.1414C12.0648 16.0604 11.9818 18.5393 14.2218 20.9671Z" fill="url(#paint6_linear_3750_122326)"/>
<path id="green-left" d="M7.5108 16.7907C8.0251 12.3047 10.1884 8.18222 12.7121 8.53282C14.5135 8.78307 12.3839 12.2834 19.1776 15.5456C19.3092 15.6088 19.4369 15.691 19.5514 15.7812C22.3521 17.987 26.4759 17.3104 26.1862 19.2404C25.6498 22.8137 19.5082 24.7486 14.5313 21.9806C10.9 19.961 6.9965 21.2768 7.5108 16.7907Z" fill="url(#paint7_linear_3750_122326)"/>
<g id="Intersect_2">
<path d="M11.2852 19.8028C11.4452 19.8984 11.5882 19.9914 11.695 20.088C13.0885 21.3485 15.2246 21.2147 17.4867 20.6172C19.8726 19.9869 23.7427 18.8511 24.3711 15.8433C24.727 14.1393 23.4353 11.8503 21.7027 9.99313C20.1244 8.30138 18.1989 6.96789 16.4546 6.76116C16.0176 6.70936 15.4843 6.70447 14.912 6.7797C11.5986 7.47019 9.81001 9.34143 9.53682 13.1495C9.26363 16.9576 9.57198 17.6927 11.2852 19.8028Z" fill="url(#paint8_linear_3750_122326)" fill-opacity="0.7"/>
<path d="M11.2852 19.8028C11.4452 19.8984 11.5882 19.9914 11.695 20.088C13.0885 21.3485 15.2246 21.2147 17.4867 20.6172C19.8726 19.9869 23.7427 18.8511 24.3711 15.8433C24.727 14.1393 23.4353 11.8503 21.7027 9.99313C20.1244 8.30138 18.1989 6.96789 16.4546 6.76116C16.0176 6.70936 15.4843 6.70447 14.912 6.7797C11.5986 7.47019 9.81001 9.34143 9.53682 13.1495C9.26363 16.9576 9.57198 17.6927 11.2852 19.8028Z" fill="url(#paint9_linear_3750_122326)" fill-opacity="0.2"/>
</g>
<g id="Red Vertical Intersect">
<path d="M8.38871 21.8468C8.02345 22.7027 8.68064 23.1108 9.0549 23.2078C9.56031 23.2876 10.8646 23.2725 12.0384 22.5735C13.2122 21.8745 13.8093 20.0947 14.1051 19.2497C12.7417 19.6459 10.3234 20.4506 9.00054 21.1891C8.52914 21.4523 8.48467 21.6219 8.38871 21.8468Z" fill="url(#paint10_linear_3750_122326)" fill-opacity="0.64"/>
<path d="M17.9159 17.948C21.1461 16.7377 22.4212 16.1978 23.4069 15.7633C24.7037 15.1916 27.1685 13.8433 26.0264 11.7002C25.1127 9.98577 22.8123 11.9627 21.6479 12.8458C19.2777 14.6434 15.3668 17.1399 13.6436 18.138C12.0278 19.074 9.73881 20.6143 9.00054 21.1891C10.3234 20.4506 12.7417 19.6459 14.1051 19.2497L17.9159 17.948Z" fill="url(#paint11_linear_3750_122326)" fill-opacity="0.64"/>
</g>
<g id="Green Horizontal Intersect">
<path d="M16.2929 15.4563C18.3964 17.0484 22.6445 20.4922 23.4847 21.229C24.5901 22.1984 26.6401 24.2363 25.1496 25.3595C23.9572 26.258 22.1843 23.8192 21.264 22.6726C19.3906 20.3386 16.3262 16.6401 14.7437 15.1847C13.1613 13.7293 11.6044 11.8892 11.0238 11.1511C12.1211 12.256 14.2335 13.8684 15.4357 14.7346L16.2929 15.4563Z" fill="url(#paint12_linear_3750_122326)" fill-opacity="0.68"/>
<path d="M10.578 10.404C10.4024 9.61186 11.0989 9.5819 11.4691 9.66593C11.959 9.81771 13.1801 10.3745 14.1452 11.3875C15.1104 12.4006 15.3232 13.9797 15.4357 14.7346C14.2335 13.8684 12.1211 12.256 11.0238 11.1511C10.6327 10.7574 10.6241 10.6121 10.578 10.404Z" fill="url(#paint13_linear_3750_122326)" fill-opacity="0.64"/>
</g>
<g id="Ellipse 210" opacity="0.5">
<path d="M27.5976 10.0112C31.7756 15.5431 30.6782 23.4145 25.1463 27.5925C19.6145 31.7706 11.7431 30.6731 7.56503 25.1413C3.38698 19.6094 4.48444 11.738 10.0163 7.55997C15.5481 3.38193 23.4195 4.47939 27.5976 10.0112Z" fill="black" fill-opacity="0.1"/>
<path d="M27.5976 10.0112C31.7756 15.5431 30.6782 23.4145 25.1463 27.5925C19.6145 31.7706 11.7431 30.6731 7.56503 25.1413C3.38698 19.6094 4.48444 11.738 10.0163 7.55997C15.5481 3.38193 23.4195 4.47939 27.5976 10.0112Z" fill="url(#paint14_radial_3750_122326)" fill-opacity="0.8"/>
<path d="M27.5976 10.0112C31.7756 15.5431 30.6782 23.4145 25.1463 27.5925C19.6145 31.7706 11.7431 30.6731 7.56503 25.1413C3.38698 19.6094 4.48444 11.738 10.0163 7.55997C15.5481 3.38193 23.4195 4.47939 27.5976 10.0112Z" fill="url(#paint15_radial_3750_122326)" fill-opacity="0.7"/>
</g>
<g id="Highlight">
<g id="Highlight Glow" filter="url(#filter0_f_3750_122326)">
<circle cx="17.728" cy="18.0874" r="5.69675" fill="white"/>
</g>
<g id="Highlight_2" filter="url(#filter1_f_3750_122326)">
<circle cx="17.5786" cy="17.5913" r="2.88425" fill="white"/>
</g>
</g>
</g>
</g>
<defs>
<filter id="filter0_f_3750_122326" x="5.38075" y="5.74012" width="24.6946" height="24.6936" filterUnits="userSpaceOnUse" color-interpolation-filters="sRGB">
<feFlood flood-opacity="0" result="BackgroundImageFix"/>
<feBlend mode="normal" in="SourceGraphic" in2="BackgroundImageFix" result="shape"/>
<feGaussianBlur stdDeviation="3.32525" result="effect1_foregroundBlur_3750_122326"/>
</filter>
<filter id="filter1_f_3750_122326" x="13.198" y="13.2107" width="8.76128" height="8.76031" filterUnits="userSpaceOnUse" color-interpolation-filters="sRGB">
<feFlood flood-opacity="0" result="BackgroundImageFix"/>
<feBlend mode="normal" in="SourceGraphic" in2="BackgroundImageFix" result="shape"/>
<feGaussianBlur stdDeviation="0.748182" result="effect1_foregroundBlur_3750_122326"/>
</filter>
<radialGradient id="paint0_radial_3750_122326" cx="0" cy="0" r="1" gradientUnits="userSpaceOnUse" gradientTransform="translate(7.98227 27.126) rotate(13.9168) scale(19.174 13.7414)">
<stop stop-color="#F7003F"/>
<stop offset="1" stop-color="#E63663" stop-opacity="0"/>
</radialGradient>
<radialGradient id="paint1_radial_3750_122326" cx="0" cy="0" r="1" gradientUnits="userSpaceOnUse" gradientTransform="translate(8.36989 8.61655) rotate(118.559) scale(12.1298)">
<stop stop-color="#006679"/>
<stop offset="1" stop-color="#006679" stop-opacity="0"/>
</radialGradient>
<radialGradient id="paint2_radial_3750_122326" cx="0" cy="0" r="1" gradientUnits="userSpaceOnUse" gradientTransform="translate(24.851 10.1168) rotate(47.0327) scale(8.78012)">
<stop stop-color="#3D2960"/>
<stop offset="1" stop-color="#3D2960" stop-opacity="0"/>
</radialGradient>
<radialGradient id="paint3_radial_3750_122326" cx="0" cy="0" r="1" gradientUnits="userSpaceOnUse" gradientTransform="translate(30.0808 21.412) rotate(130.315) scale(11.4509)">
<stop stop-color="#447AA5"/>
<stop offset="1" stop-color="#447AA5" stop-opacity="0"/>
</radialGradient>
<linearGradient id="paint4_linear_3750_122326" x1="17.2932" y1="16.0379" x2="12.809" y2="24.2494" gradientUnits="userSpaceOnUse">
<stop stop-color="#FF0061" stop-opacity="0"/>
<stop offset="0.0461083" stop-color="#FF0061" stop-opacity="0.01"/>
<stop offset="0.0868148" stop-color="#FF0061" stop-opacity="0.0137989"/>
<stop offset="0.124044" stop-color="#FF0061" stop-opacity="0.0317363"/>
<stop offset="0.15972" stop-color="#FF0061" stop-opacity="0.0576443"/>
<stop offset="0.195767" stop-color="#FF0061" stop-opacity="0.0919821"/>
<stop offset="0.23411" stop-color="#FF0161" stop-opacity="0.135209"/>
<stop offset="0.276672" stop-color="#FF0161" stop-opacity="0.187783"/>
<stop offset="0.325379" stop-color="#FF0161" stop-opacity="0.250165"/>
<stop offset="0.382154" stop-color="#FF0262" stop-opacity="0.322813"/>
<stop offset="0.448921" stop-color="#FF0262" stop-opacity="0.406186"/>
<stop offset="0.527606" stop-color="#FF0362" stop-opacity="0.500744"/>
<stop offset="0.620132" stop-color="#FF0363" stop-opacity="0.606945"/>
<stop offset="0.728423" stop-color="#FF0463" stop-opacity="0.725249"/>
<stop offset="0.854405" stop-color="#FF0563" stop-opacity="0.856114"/>
<stop offset="1" stop-color="#FF0564"/>
</linearGradient>
<linearGradient id="paint5_linear_3750_122326" x1="20.1507" y1="21.7895" x2="19.759" y2="21.7224" gradientUnits="userSpaceOnUse">
<stop stop-color="white"/>
<stop offset="1" stop-color="white" stop-opacity="0"/>
</linearGradient>
<linearGradient id="paint6_linear_3750_122326" x1="27.6412" y1="15.2554" x2="17.6811" y2="17.1971" gradientUnits="userSpaceOnUse">
<stop stop-color="#AEDCFF"/>
<stop offset="0.042963" stop-color="#5BAEEC" stop-opacity="0.994781"/>
<stop offset="0.077037" stop-color="#5BAEEC" stop-opacity="0.983153"/>
<stop offset="0.105055" stop-color="#5BAEEC" stop-opacity="0.964571"/>
<stop offset="0.129849" stop-color="#5BAEEC" stop-opacity="0.938488"/>
<stop offset="0.154253" stop-color="#5BAEEC" stop-opacity="0.904355"/>
<stop offset="0.181099" stop-color="#5BAEEC" stop-opacity="0.861626"/>
<stop offset="0.213219" stop-color="#5BAEEC" stop-opacity="0.809755"/>
<stop offset="0.253447" stop-color="#5BAEEC" stop-opacity="0.748194"/>
<stop offset="0.304615" stop-color="#5BAEEC" stop-opacity="0.676396"/>
<stop offset="0.369556" stop-color="#5BAEEC" stop-opacity="0.593814"/>
<stop offset="0.451103" stop-color="#5BAEEC" stop-opacity="0.499901"/>
<stop offset="0.552088" stop-color="#5BAEEC" stop-opacity="0.39411"/>
<stop offset="0.675344" stop-color="#5BAEEC" stop-opacity="0.275894"/>
<stop offset="0.823704" stop-color="#5BAEEC" stop-opacity="0.144707"/>
<stop offset="1" stop-color="#5BAEEC" stop-opacity="0"/>
</linearGradient>
<linearGradient id="paint7_linear_3750_122326" x1="10.5355" y1="18.9439" x2="12.9615" y2="9.251" gradientUnits="userSpaceOnUse">
<stop stop-color="#18D0B1" stop-opacity="0"/>
<stop offset="0.0548604" stop-color="#18D0B1" stop-opacity="0.01"/>
<stop offset="0.0983704" stop-color="#18D0B1" stop-opacity="0.0132741"/>
<stop offset="0.133538" stop-color="#18D0B1" stop-opacity="0.0300308"/>
<stop offset="0.163373" stop-color="#18D0B1" stop-opacity="0.0536798"/>
<stop offset="0.190883" stop-color="#18D0B1" stop-opacity="0.0843305"/>
<stop offset="0.219077" stop-color="#18D0B1" stop-opacity="0.122092"/>
<stop offset="0.250963" stop-color="#18D0B1" stop-opacity="0.167075"/>
<stop offset="0.28955" stop-color="#18D0B1" stop-opacity="0.219387"/>
<stop offset="0.337846" stop-color="#18D0B1" stop-opacity="0.279138"/>
<stop offset="0.39886" stop-color="#18D0B1" stop-opacity="0.346439"/>
<stop offset="0.475601" stop-color="#17D0B1" stop-opacity="0.421397"/>
<stop offset="0.571077" stop-color="#17D0B1" stop-opacity="0.504123"/>
<stop offset="0.688296" stop-color="#17D0B1" stop-opacity="0.594726"/>
<stop offset="0.830268" stop-color="#17D0B1" stop-opacity="0.693315"/>
<stop offset="1" stop-color="#17D0B1" stop-opacity="0.8"/>
</linearGradient>
<linearGradient id="paint8_linear_3750_122326" x1="16.5484" y1="15.2415" x2="21.8788" y2="12.2832" gradientUnits="userSpaceOnUse">
<stop stop-color="#4ABBFF" stop-opacity="0"/>
<stop offset="0.0379715" stop-color="#4ABBFF" stop-opacity="0.03"/>
<stop offset="0.077545" stop-color="#4ABBFF" stop-opacity="0.060455"/>
<stop offset="0.119297" stop-color="#4ABAFF" stop-opacity="0.0746374"/>
<stop offset="0.163803" stop-color="#49B9FE" stop-opacity="0.0957794"/>
<stop offset="0.21164" stop-color="#49B7FE" stop-opacity="0.124624"/>
<stop offset="0.263385" stop-color="#49B6FD" stop-opacity="0.161912"/>
<stop offset="0.319613" stop-color="#48B3FC" stop-opacity="0.208387"/>
<stop offset="0.3809" stop-color="#47B1FB" stop-opacity="0.264792"/>
<stop offset="0.447824" stop-color="#46AEFA" stop-opacity="0.331868"/>
<stop offset="0.520961" stop-color="#45AAF9" stop-opacity="0.410358"/>
<stop offset="0.600886" stop-color="#44A6F7" stop-opacity="0.501004"/>
<stop offset="0.688176" stop-color="#43A1F5" stop-opacity="0.604549"/>
<stop offset="0.783407" stop-color="#429BF3" stop-opacity="0.721735"/>
<stop offset="0.887157" stop-color="#4095F1" stop-opacity="0.853305"/>
<stop offset="1" stop-color="#3E8EEE"/>
</linearGradient>
<linearGradient id="paint9_linear_3750_122326" x1="19.3455" y1="19.9028" x2="19.1226" y2="19.455" gradientUnits="userSpaceOnUse">
<stop stop-color="white" stop-opacity="0.5"/>
<stop offset="1" stop-color="white" stop-opacity="0"/>
</linearGradient>
<linearGradient id="paint10_linear_3750_122326" x1="15.0004" y1="18.5232" x2="10.1062" y2="26.8293" gradientUnits="userSpaceOnUse">
<stop stop-color="#FF5E5E"/>
<stop offset="1" stop-color="#D9D9D9" stop-opacity="0"/>
</linearGradient>
<linearGradient id="paint11_linear_3750_122326" x1="20.8659" y1="18.4335" x2="19.3799" y2="14.8885" gradientUnits="userSpaceOnUse">
<stop stop-color="#FF5E5E"/>
<stop offset="1" stop-color="#D9D9D9" stop-opacity="0"/>
</linearGradient>
<linearGradient id="paint12_linear_3750_122326" x1="15.4185" y1="15.4681" x2="17.0907" y2="27.1022" gradientUnits="userSpaceOnUse">
<stop stop-color="#92FF6C"/>
<stop offset="1" stop-color="#D9D9D9" stop-opacity="0"/>
</linearGradient>
<linearGradient id="paint13_linear_3750_122326" x1="10.5089" y1="8.27919" x2="12.1916" y2="18.5232" gradientUnits="userSpaceOnUse">
<stop stop-color="#339EB5"/>
<stop offset="1" stop-color="#3FB4CD" stop-opacity="0"/>
</linearGradient>
<radialGradient id="paint14_radial_3750_122326" cx="0" cy="0" r="1" gradientUnits="userSpaceOnUse" gradientTransform="translate(33.5058 10.3748) rotate(-30.8467) scale(11.0007)">
<stop stop-color="white"/>
<stop offset="1" stop-color="white" stop-opacity="0"/>
<stop offset="1" stop-color="white"/>
</radialGradient>
<radialGradient id="paint15_radial_3750_122326" cx="0" cy="0" r="1" gradientUnits="userSpaceOnUse" gradientTransform="translate(2.43938 4.01276) rotate(77.1681) scale(13.7573)">
<stop stop-color="white"/>
<stop offset="1" stop-color="white" stop-opacity="0"/>
</radialGradient>
</defs>
</svg>
