<svg width="24" height="24" viewBox="0 0 24 24" fill="none" xmlns="http://www.w3.org/2000/svg">
<g id="Correct-Password--Streamline-Core">
<g id="Correct-Password--Streamline-Core_2">
<g id="Group 2605">
<path id="Ellipse 1111" d="M5.99986 8.14425C5.76317 8.14425 5.57129 7.95237 5.57129 7.71568C5.57129 7.47899 5.76317 7.28711 5.99986 7.28711" stroke="white" stroke-linecap="round" stroke-linejoin="round"/>
<path id="Ellipse 1112" d="M6 8.14425C6.23669 8.14425 6.42857 7.95237 6.42857 7.71568C6.42857 7.47899 6.23669 7.28711 6 7.28711" stroke="white" stroke-linecap="round" stroke-linejoin="round"/>
</g>
<g id="Group 2610">
<path id="Ellipse 1111_2" d="M14.5721 8.14425C14.3354 8.14425 14.1436 7.95237 14.1436 7.71568C14.1436 7.47899 14.3354 7.28711 14.5721 7.28711" stroke="white" stroke-linecap="round" stroke-linejoin="round"/>
<path id="Ellipse 1112_2" d="M14.5723 8.14425C14.809 8.14425 15.0008 7.95237 15.0008 7.71568C15.0008 7.47899 14.809 7.28711 14.5723 7.28711" stroke="white" stroke-linecap="round" stroke-linejoin="round"/>
</g>
<g id="Group 2611">
<path id="Ellipse 1111_3" d="M10.286 8.14425C10.0493 8.14425 9.85742 7.95237 9.85742 7.71568C9.85742 7.47899 10.0493 7.28711 10.286 7.28711" stroke="white" stroke-linecap="round" stroke-linejoin="round"/>
<path id="Ellipse 1112_3" d="M10.2861 8.14425C10.5228 8.14425 10.7147 7.95237 10.7147 7.71568C10.7147 7.47899 10.5228 7.28711 10.2861 7.28711" stroke="white" stroke-linecap="round" stroke-linejoin="round"/>
</g>
<path id="Rectangle 1696" d="M0.857422 4.28655C0.857422 3.33979 1.62493 2.57227 2.57171 2.57227H18.0003C18.9471 2.57227 19.7146 3.33979 19.7146 4.28655V11.1437C19.7146 12.0905 18.9471 12.858 18.0003 12.858H2.57171C1.62493 12.858 0.857422 12.0905 0.857422 11.1437V4.28655Z" stroke="white" stroke-linecap="round" stroke-linejoin="round"/>
<path id="Vector" d="M23.1431 12.8574L16.286 21.4289L12.8574 18.8574" stroke="white" stroke-linecap="round" stroke-linejoin="round"/>
</g>
</g>
</svg>
