<svg width="24" height="24" viewBox="0 0 24 24" fill="none" xmlns="http://www.w3.org/2000/svg">
<g id="Face-Scan-2--Streamline-Core">
<g id="Face-Scan-2--Streamline-Core_2">
<path id="Ellipse 592" d="M14.7868 13.75C14.7868 13.75 14.0785 15.1437 11.9994 15.1437C9.92022 15.1437 9.21191 13.75 9.21191 13.75" stroke="white" stroke-linecap="round" stroke-linejoin="round"/>
<g id="Group 11">
<path id="Vector" d="M8.99986 10.7146C8.76317 10.7146 8.57129 10.5227 8.57129 10.286C8.57129 10.0493 8.76317 9.85742 8.99986 9.85742" stroke="white" stroke-linecap="round" stroke-linejoin="round"/>
<path id="Vector_2" d="M9 10.7146C9.23669 10.7146 9.42857 10.5227 9.42857 10.286C9.42857 10.0493 9.23669 9.85742 9 9.85742" stroke="white" stroke-linecap="round" stroke-linejoin="round"/>
</g>
<g id="Group 10">
<path id="Vector_3" d="M14.9999 10.7146C14.7632 10.7146 14.5713 10.5227 14.5713 10.286C14.5713 10.0493 14.7632 9.85742 14.9999 9.85742" stroke="white" stroke-linecap="round" stroke-linejoin="round"/>
<path id="Vector_4" d="M15 10.7146C15.2367 10.7146 15.4286 10.5227 15.4286 10.286C15.4286 10.0493 15.2367 9.85742 15 9.85742" stroke="white" stroke-linecap="round" stroke-linejoin="round"/>
</g>
<path id="Ellipse 593" d="M19.2853 12.0006C19.2853 16.0243 16.0234 19.2863 11.9996 19.2863C7.97579 19.2863 4.71387 16.0243 4.71387 12.0006C4.71387 7.97677 7.97579 4.71484 11.9996 4.71484C16.0234 4.71484 19.2853 7.97677 19.2853 12.0006Z" stroke="white" stroke-linecap="round" stroke-linejoin="round"/>
<path id="Vector_5" d="M22.2854 17.1426V20.5711C22.2854 21.0258 22.1047 21.4619 21.7833 21.7833C21.4619 22.1047 21.0258 22.2854 20.5711 22.2854H17.1426" stroke="white" stroke-linecap="round" stroke-linejoin="round"/>
<path id="Vector_6" d="M17.1426 1.71484H20.5711C21.0258 1.71484 21.4619 1.89546 21.7833 2.21694C22.1047 2.53844 22.2854 2.97447 22.2854 3.42913V6.8577" stroke="white" stroke-linecap="round" stroke-linejoin="round"/>
<path id="Vector_7" d="M1.71387 6.8577V3.42913C1.71387 2.97447 1.89448 2.53844 2.21596 2.21694C2.53746 1.89546 2.97349 1.71484 3.42815 1.71484H6.85672" stroke="white" stroke-linecap="round" stroke-linejoin="round"/>
<path id="Vector_8" d="M6.85672 22.2854H3.42815C2.97349 22.2854 2.53746 22.1047 2.21596 21.7833C1.89448 21.4619 1.71387 21.0258 1.71387 20.5711V17.1426" stroke="white" stroke-linecap="round" stroke-linejoin="round"/>
</g>
</g>
</svg>
