<svg width="32" height="32" viewBox="0 0 32 32" fill="none" xmlns="http://www.w3.org/2000/svg">
<g id="Face-Scan-1--Streamline-Core">
<g id="Face-Scan-1--Streamline-Core_2">
<path id="Vector" d="M29.0728 22.5352V26.8923C29.0728 27.4701 28.8432 28.0243 28.4347 28.4328C28.0262 28.8412 27.472 29.0709 26.8943 29.0709H22.5371" stroke="white" stroke-width="1.5" stroke-linecap="round" stroke-linejoin="round"/>
<path id="Vector_2" d="M22.5371 2.92773H26.8943C27.472 2.92773 28.0262 3.15727 28.4347 3.56582C28.8432 3.97439 29.0728 4.52851 29.0728 5.10631V9.46345" stroke="white" stroke-width="1.5" stroke-linecap="round" stroke-linejoin="round"/>
<path id="Vector_3" d="M2.92969 9.46345V5.10631C2.92969 4.52851 3.15922 3.97439 3.56777 3.56582C3.97634 3.15727 4.53046 2.92773 5.10826 2.92773H9.4654" stroke="white" stroke-width="1.5" stroke-linecap="round" stroke-linejoin="round"/>
<path id="Vector_4" d="M9.4654 29.0709H5.10826C4.53046 29.0709 3.97634 28.8412 3.56777 28.4328C3.15922 28.0243 2.92969 27.4701 2.92969 26.8923V22.5352" stroke="white" stroke-width="1.5" stroke-linecap="round" stroke-linejoin="round"/>
<path id="Vector_5" d="M16.0003 10.0078V17.6328H12.7324" stroke="white" stroke-width="1.5" stroke-linecap="round" stroke-linejoin="round"/>
<path id="Vector_6" d="M10.5547 21.9902C12.0244 23.3863 13.9741 24.1647 16.0011 24.1647C18.0282 24.1647 19.9778 23.3863 21.4475 21.9902" stroke="white" stroke-width="1.5" stroke-linecap="round" stroke-linejoin="round"/>
<g id="Group 8">
<path id="Vector_7" d="M9.46457 10.5522C9.16377 10.5522 8.91992 10.3083 8.91992 10.0075C8.91992 9.70674 9.16377 9.46289 9.46457 9.46289" stroke="white" stroke-width="1.5" stroke-linecap="round" stroke-linejoin="round"/>
<path id="Vector_8" d="M9.46484 10.5522C9.76564 10.5522 10.0095 10.3083 10.0095 10.0075C10.0095 9.70674 9.76564 9.46289 9.46484 9.46289" stroke="white" stroke-width="1.5" stroke-linecap="round" stroke-linejoin="round"/>
</g>
<g id="Group 2656">
<path id="Vector_9" d="M22.5368 10.5522C22.236 10.5522 21.9922 10.3083 21.9922 10.0075C21.9922 9.70674 22.236 9.46289 22.5368 9.46289" stroke="white" stroke-width="1.5" stroke-linecap="round" stroke-linejoin="round"/>
<path id="Vector_10" d="M22.5371 10.5522C22.838 10.5522 23.0818 10.3083 23.0818 10.0075C23.0818 9.70674 22.838 9.46289 22.5371 9.46289" stroke="white" stroke-width="1.5" stroke-linecap="round" stroke-linejoin="round"/>
</g>
</g>
</g>
</svg>
