<svg width="24" height="24" viewBox="0 0 24 24" fill="none" xmlns="http://www.w3.org/2000/svg">
<g id="Fingerprint-Check-Validate--Streamline-Core" clip-path="url(#clip0_6356_138259)">
<g id="Fingerprint-Check-Validate--Streamline-Core_2">
<path id="Vector" d="M22.618 14.4492L16.0823 22.6189L12.8145 20.168" stroke="white" stroke-linecap="round" stroke-linejoin="round"/>
<path id="Vector 3728" d="M19.352 12.8161V10.3652C19.352 8.19271 18.5811 6.20025 17.2979 4.64648" stroke="white" stroke-linecap="round" stroke-linejoin="round"/>
<path id="Vector 3733" d="M1.37695 11.1797V13.6306C1.37695 17.2556 3.52333 20.3794 6.61453 21.8002" stroke="white" stroke-linecap="round" stroke-linejoin="round"/>
<path id="Vector 3732" d="M14.1153 2.19392C12.9742 1.66942 11.7044 1.37695 10.3663 1.37695C6.35822 1.37695 2.96298 4.00088 1.80469 7.62467" stroke="white" stroke-linecap="round" stroke-linejoin="round"/>
<path id="Vector 3729" d="M5.73987 8.73047C5.55922 9.24153 5.46094 9.79148 5.46094 10.3644V13.6323C5.46094 16.0611 7.22744 18.0774 9.54576 18.4662" stroke="white" stroke-linecap="round" stroke-linejoin="round"/>
<path id="Vector 3731" d="M9.3623 5.56329C9.68554 5.4962 10.0205 5.46094 10.3636 5.46094C13.0708 5.46094 15.2654 7.65555 15.2654 10.3627V12.8136" stroke="white" stroke-linecap="round" stroke-linejoin="round"/>
<path id="Vector 3730" d="M10.3643 10.3652V13.6331" stroke="white" stroke-linecap="round" stroke-linejoin="round"/>
</g>
</g>
<defs>
<clipPath id="clip0_6356_138259">
<rect width="24" height="24" fill="white"/>
</clipPath>
</defs>
</svg>
