<svg width="32" height="32" viewBox="0 0 32 32" fill="none" xmlns="http://www.w3.org/2000/svg">
<g id="User-Full-Body-Following--Streamline-Core">
<g id="User-Full-Body-Following--Streamline-Core_2">
<path id="Vector" d="M9.46484 9.46484C11.5704 9.46484 13.2773 7.75793 13.2773 5.65234C13.2773 3.54675 11.5704 1.83984 9.46484 1.83984C7.35925 1.83984 5.65234 3.54675 5.65234 5.65234C5.65234 7.75793 7.35925 9.46484 9.46484 9.46484Z" stroke="white" stroke-width="1.5" stroke-linecap="round" stroke-linejoin="round"/>
<path id="Vector 3812" d="M1.83984 20.9023H5.1077L6.19699 30.1613H12.7327L13.822 20.9023H17.0898V17.0898C17.0898 12.8787 13.676 9.46484 9.46484 9.46484C5.25366 9.46484 1.83984 12.8787 1.83984 17.0898V20.9023Z" stroke="white" stroke-width="1.5" stroke-linecap="round" stroke-linejoin="round"/>
<path id="Vector 3802" d="M30.1604 25.8047H19.2676" stroke="white" stroke-width="1.5" stroke-linecap="round" stroke-linejoin="round"/>
<path id="Vector 3803" d="M25.8047 21.4473L30.1618 25.8044L25.8047 30.1616" stroke="white" stroke-width="1.5" stroke-linecap="round" stroke-linejoin="round"/>
</g>
</g>
</svg>
