<svg width="32" height="32" viewBox="0 0 32 32" fill="none" xmlns="http://www.w3.org/2000/svg">
<g id="One-Finger-Double-Tap--Streamline-Core">
<g id="One-Finger-Double-Tap--Streamline-Core_2">
<path id="Vector 107" d="M10.0087 30.1621L5.79418 24.2619C5.08329 23.2665 5.19614 21.9032 6.06097 21.0384C7.03804 20.0613 8.62221 20.0613 9.59928 21.0384L12.1873 23.6264V10.0103C12.1873 8.50633 13.4065 7.28711 14.9105 7.28711C16.4145 7.28711 17.6337 8.50633 17.6337 10.0103V18.3913L22.8189 18.2955C26.1561 18.2338 28.8072 21.0837 28.505 24.4076L27.9819 30.1621" stroke="white" stroke-width="1.5" stroke-linecap="round" stroke-linejoin="round"/>
<path id="Ellipse 1944" d="M8.01955 11.644C7.89563 11.1195 7.83008 10.5724 7.83008 10.01C7.83008 6.09966 11.0001 2.92969 14.9104 2.92969C18.8208 2.92969 21.9908 6.09966 21.9908 10.01C21.9908 10.5724 21.9252 11.1195 21.8013 11.644" stroke="white" stroke-width="1.5" stroke-linecap="round" stroke-linejoin="round"/>
<path id="Ellipse 1945" d="M6.45628 1.83984C5.26046 3.07448 4.31644 4.55447 3.70703 6.19699" stroke="white" stroke-width="1.5" stroke-linecap="round" stroke-linejoin="round"/>
<path id="Ellipse 1946" d="M24.4531 1.83984C25.6489 3.07448 26.5929 4.55447 27.2025 6.19699" stroke="white" stroke-width="1.5" stroke-linecap="round" stroke-linejoin="round"/>
</g>
</g>
</svg>
