<svg width="32" height="32" viewBox="0 0 32 32" fill="none" xmlns="http://www.w3.org/2000/svg">
<g id="Password-Lock--Streamline-Core">
<g id="Password-Lock--Streamline-Core_2">
<g id="Group 2674">
<path id="Ellipse 1113" d="M8.37277 11.0971C8.07197 11.0971 7.82812 10.8533 7.82812 10.5525C7.82812 10.2517 8.07197 10.0078 8.37277 10.0078" stroke="white" stroke-width="1.5" stroke-linecap="round" stroke-linejoin="round"/>
<path id="Ellipse 1114" d="M8.37305 11.0971C8.67384 11.0971 8.91769 10.8533 8.91769 10.5525C8.91769 10.2517 8.67384 10.0078 8.37305 10.0078" stroke="white" stroke-width="1.5" stroke-linecap="round" stroke-linejoin="round"/>
</g>
<g id="Group 2676">
<path id="Ellipse 1115" d="M19.2673 11.0971C18.9665 11.0971 18.7227 10.8533 18.7227 10.5525C18.7227 10.2517 18.9665 10.0078 19.2673 10.0078" stroke="white" stroke-width="1.5" stroke-linecap="round" stroke-linejoin="round"/>
<path id="Ellipse 1116" d="M19.2676 11.0971C19.5684 11.0971 19.8122 10.8533 19.8122 10.5525C19.8122 10.2517 19.5684 10.0078 19.2676 10.0078" stroke="white" stroke-width="1.5" stroke-linecap="round" stroke-linejoin="round"/>
</g>
<g id="Group 2675">
<path id="Ellipse 1111" d="M13.82 11.0971C13.5192 11.0971 13.2754 10.8533 13.2754 10.5525C13.2754 10.2517 13.5192 10.0078 13.82 10.0078" stroke="white" stroke-width="1.5" stroke-linecap="round" stroke-linejoin="round"/>
<path id="Ellipse 1112" d="M13.8203 11.0971C14.1211 11.0971 14.365 10.8533 14.365 10.5525C14.365 10.2517 14.1211 10.0078 13.8203 10.0078" stroke="white" stroke-width="1.5" stroke-linecap="round" stroke-linejoin="round"/>
</g>
<path id="Vector 3864" d="M20.9004 20.356V17.6328C20.9004 15.5272 22.6073 13.8203 24.7129 13.8203C26.8185 13.8203 28.5254 15.5272 28.5254 17.6328V20.356" stroke="white" stroke-width="1.5" stroke-linecap="round" stroke-linejoin="round"/>
<path id="Vector 3865" d="M19.2656 26.8931V21.4467C19.2656 20.8451 19.7533 20.3574 20.3549 20.3574H29.0692C29.6707 20.3574 30.1585 20.8451 30.1585 21.4467V26.8931C30.1585 27.4946 29.6707 27.9824 29.0692 27.9824H20.3549C19.7533 27.9824 19.2656 27.4946 19.2656 26.8931Z" stroke="white" stroke-width="1.5" stroke-linecap="round" stroke-linejoin="round"/>
<path id="Rectangle 1696" d="M25.8022 9.25977V6.19615C25.8022 4.99297 24.8268 4.01758 23.6236 4.01758H4.01646C2.81327 4.01758 1.83789 4.99297 1.83789 6.19615V14.9104C1.83789 16.1136 2.81327 17.089 4.01646 17.089H16.2709" stroke="white" stroke-width="1.5" stroke-linecap="round" stroke-linejoin="round"/>
</g>
</g>
</svg>
