<svg width="48" height="48" viewBox="0 0 48 48" fill="none" xmlns="http://www.w3.org/2000/svg">
<g id="Surveillance-Camera--Streamline-Core">
<g id="Surveillance-Camera--Streamline-Core_2">
<path id="Ellipse 1992" d="M14.1914 17.4581C14.1914 17.8915 14.3636 18.3071 14.67 18.6135C14.9764 18.9199 15.392 19.0921 15.8253 19.0921C16.2587 19.0921 16.6743 18.9199 16.9807 18.6135C17.2871 18.3071 17.4593 17.8915 17.4593 17.4581C17.4593 17.0248 17.2871 16.6092 16.9807 16.3028C16.6743 15.9964 16.2587 15.8242 15.8253 15.8242C15.392 15.8242 14.9764 15.9964 14.67 16.3028C14.3636 16.6092 14.1914 17.0248 14.1914 17.4581Z" stroke="white" stroke-width="3" stroke-linecap="round" stroke-linejoin="round"/>
<path id="Vector 4988" d="M17.4492 6.02734H41.9581C43.763 6.02734 45.226 7.49043 45.226 9.2952V11.732C45.226 13.1911 44.2587 14.4733 42.8558 14.8742L33.7885 17.4648V25.6345C33.7885 27.4393 32.3254 28.9023 30.5206 28.9023H17.4492C11.1325 28.9023 6.01172 23.7816 6.01172 17.4648C6.01172 11.1481 11.1325 6.02734 17.4492 6.02734Z" stroke="white" stroke-width="3" stroke-linecap="round" stroke-linejoin="round"/>
<path id="Vector 4990" d="M2.75391 32.1602V41.9637" stroke="white" stroke-width="3" stroke-linecap="round" stroke-linejoin="round"/>
<path id="Vector 4991" d="M2.75391 37.072H17.4593L19.0932 28.9023" stroke="white" stroke-width="3" stroke-linecap="round" stroke-linejoin="round"/>
<path id="Vector 4989" d="M33.8086 25.6256H38.7104C40.5152 25.6256 41.9782 24.1625 41.9782 22.3577V15.2773" stroke="white" stroke-width="3" stroke-linecap="round" stroke-linejoin="round"/>
</g>
</g>
</svg>
