<svg width="22" height="104" viewBox="0 0 22 104" fill="none" xmlns="http://www.w3.org/2000/svg">
<path id="Vector 2494" d="M21.3138 0.576994C21.3165 0.419 21.1905 0.288805 21.0325 0.286194C20.8745 0.283582 20.7443 0.409544 20.7417 0.567538L21.3138 0.576994ZM21.0278 0.572266C20.7417 0.567538 20.7417 0.567599 20.7417 0.567754C20.7417 0.567929 20.7417 0.568177 20.7417 0.568527C20.7417 0.569228 20.7417 0.5703 20.7416 0.571742C20.7416 0.574627 20.7415 0.57899 20.7414 0.584825C20.7412 0.596494 20.7409 0.614047 20.7404 0.637415C20.7394 0.684152 20.738 0.754147 20.7358 0.846848C20.7314 1.03225 20.7241 1.30848 20.7128 1.6711C20.6901 2.39636 20.651 3.46721 20.5853 4.84828C20.454 7.61043 20.2166 11.6133 19.7918 16.574C18.9424 26.4956 17.3442 40.2466 14.3492 55.5636L14.9108 55.6734C17.9106 40.3317 19.5112 26.5596 20.362 16.6228C20.7874 11.6542 21.0253 7.64405 21.1569 4.87545C21.2227 3.49114 21.2619 2.41719 21.2847 1.68899C21.2961 1.32489 21.3034 1.04723 21.3078 0.860421C21.31 0.767017 21.3115 0.696328 21.3125 0.648906C21.313 0.625195 21.3133 0.607301 21.3135 0.595292C21.3136 0.589288 21.3137 0.584755 21.3138 0.581703C21.3138 0.580176 21.3138 0.57902 21.3138 0.578235C21.3138 0.577842 21.3138 0.577532 21.3138 0.577335C21.3138 0.577118 21.3138 0.576994 21.0278 0.572266ZM14.3492 55.5636C11.3544 70.8801 7.95008 82.7137 5.29543 90.7162C3.96811 94.7174 2.82821 97.7608 2.02062 99.8028C1.61683 100.824 1.29612 101.595 1.0766 102.109C0.966839 102.367 0.882378 102.56 0.825479 102.689C0.797029 102.754 0.775471 102.802 0.761085 102.834C0.753893 102.85 0.748494 102.862 0.744923 102.87C0.743138 102.874 0.74181 102.877 0.740944 102.879C0.74051 102.88 0.740193 102.88 0.739991 102.881C0.73989 102.881 0.739826 102.881 0.739775 102.881C0.73974 102.881 0.739734 102.881 1 103C1.26027 103.119 1.26032 103.119 1.2604 103.119C1.26047 103.118 1.26058 103.118 1.26071 103.118C1.26097 103.117 1.26135 103.117 1.26184 103.115C1.26283 103.113 1.26428 103.11 1.26619 103.106C1.27001 103.097 1.27565 103.085 1.28309 103.068C1.29796 103.035 1.32001 102.986 1.34894 102.92C1.40682 102.789 1.49225 102.594 1.60298 102.334C1.82443 101.814 2.14706 101.039 2.55274 100.013C3.36411 97.9617 4.50771 94.9082 5.83855 90.8963C8.50023 82.8727 11.9109 71.0155 14.9108 55.6734L14.3492 55.5636Z" fill="url(#paint0_linear_7082_1278)"/>
<defs>
<linearGradient id="paint0_linear_7082_1278" x1="11.0139" y1="0.572266" x2="11.0139" y2="103" gradientUnits="userSpaceOnUse">
<stop stop-color="white" stop-opacity="0"/>
<stop offset="0.229167" stop-color="white" stop-opacity="0.32"/>
<stop offset="1" stop-color="white"/>
</linearGradient>
</defs>
</svg>
