<svg width="16" height="17" viewBox="0 0 16 17" fill="none" xmlns="http://www.w3.org/2000/svg">
<g clip-path="url(#clip0_3694_116926)">
<path d="M9.00102 10.0163H15.325C15.3705 10.0163 15.4156 10.0255 15.4574 10.0435C15.4992 10.0615 15.5369 10.0878 15.5681 10.1209C15.5993 10.154 15.6234 10.1932 15.639 10.236C15.6545 10.2787 15.6611 10.3242 15.6584 10.3697C15.5682 11.8972 14.8979 13.3326 13.7844 14.3823C12.671 15.4319 11.1986 16.0164 9.66835 16.0163H6.33502C4.80426 16.0166 3.3313 15.4317 2.21764 14.3815C1.10397 13.3313 0.433815 11.8951 0.344351 10.367C0.34162 10.3216 0.34822 10.2761 0.363745 10.2333C0.37927 10.1905 0.40339 10.1514 0.434619 10.1183C0.465848 10.0852 0.503525 10.0588 0.545328 10.0408C0.587131 10.0228 0.632175 10.0136 0.677684 10.0137H4.33435" stroke="white" stroke-width="0.666667" stroke-linecap="round" stroke-linejoin="round"/>
<path d="M11.5137 1.92328L12.1137 1.32328C12.306 1.15226 12.5437 1.04055 12.7981 1.00165C13.0525 0.962746 13.3128 0.998304 13.5474 1.10403C13.7821 1.20976 13.9811 1.38114 14.1205 1.59749C14.2599 1.81384 14.3337 2.06591 14.333 2.32328V10.0153" stroke="white" stroke-width="0.666667" stroke-linecap="round" stroke-linejoin="round"/>
<path d="M11.5132 4.15832C11.6625 4.0122 11.7813 3.83793 11.8628 3.64559C11.9443 3.45325 11.9868 3.24667 11.9879 3.03778C11.9891 2.82889 11.9488 2.62186 11.8694 2.42864C11.79 2.23543 11.673 2.05989 11.5254 1.91216C11.3777 1.76443 11.2022 1.64745 11.009 1.56799C10.8158 1.48853 10.6088 1.44817 10.3999 1.44924C10.191 1.45031 9.98438 1.49279 9.79202 1.57422C9.59966 1.65565 9.42535 1.77442 9.27918 1.92366L9.14252 2.06032C9.08003 2.12283 9.04492 2.2076 9.04492 2.29599C9.04492 2.38438 9.08003 2.46915 9.14252 2.53166L10.9052 4.29499C10.9361 4.32603 10.9729 4.35066 11.0134 4.36747C11.0539 4.38427 11.0973 4.39292 11.1412 4.39292C11.185 4.39292 11.2284 4.38427 11.2689 4.36747C11.3094 4.35066 11.3462 4.32603 11.3772 4.29499L11.5132 4.15832Z" stroke="white" stroke-width="0.666667" stroke-linecap="round" stroke-linejoin="round"/>
<path d="M7.60715 2.73633L6.39648 3.29433" stroke="white" stroke-width="0.666667" stroke-linecap="round" stroke-linejoin="round"/>
<path d="M10.5943 5.73633L10.0703 6.96233" stroke="white" stroke-width="0.666667" stroke-linecap="round" stroke-linejoin="round"/>
<path d="M8.80738 4.54688L7.85938 5.48487" stroke="white" stroke-width="0.666667" stroke-linecap="round" stroke-linejoin="round"/>
<path d="M9.00065 9.34831C9.00065 9.1715 8.93041 9.00193 8.80539 8.8769C8.68036 8.75188 8.5108 8.68164 8.33398 8.68164H5.00065C4.82384 8.68164 4.65427 8.75188 4.52925 8.8769C4.40422 9.00193 4.33398 9.1715 4.33398 9.34831V13.015C4.33398 13.1034 4.3691 13.1882 4.43162 13.2507C4.49413 13.3132 4.57891 13.3483 4.66732 13.3483H8.66732C8.75572 13.3483 8.84051 13.3132 8.90302 13.2507C8.96553 13.1882 9.00065 13.1034 9.00065 13.015V9.34831Z" stroke="white" stroke-width="0.666667" stroke-linecap="round" stroke-linejoin="round"/>
</g>
<defs>
<clipPath id="clip0_3694_116926">
<rect width="16" height="16" fill="white" transform="translate(0 0.5)"/>
</clipPath>
</defs>
</svg>
