<svg width="16" height="17" viewBox="0 0 16 17" fill="none" xmlns="http://www.w3.org/2000/svg">
<g clip-path="url(#clip0_3694_116962)">
<path d="M12.8805 11.5199H15.2805C15.3342 11.5203 15.3875 11.5094 15.4368 11.4881C15.4861 11.4667 15.5305 11.4353 15.567 11.3958C15.6035 11.3564 15.6314 11.3097 15.6489 11.2589C15.6663 11.208 15.673 11.1541 15.6685 11.1005C15.6007 10.3798 15.3659 9.68472 14.9828 9.07049C14.5996 8.45625 14.0786 7.93973 13.4611 7.56188C13.4155 7.5336 13.3645 7.51513 13.3114 7.50766C13.2583 7.5002 13.2042 7.50389 13.1525 7.5185C13.1009 7.53312 13.0529 7.55834 13.0116 7.59255C12.9702 7.62677 12.9365 7.66922 12.9125 7.71721L11.8418 9.85654C12.1522 10.0102 12.4137 10.2471 12.5971 10.5408C12.7806 10.8346 12.8787 11.1736 12.8805 11.5199Z" stroke="white" stroke-width="0.666667" stroke-linecap="round" stroke-linejoin="round"/>
<path d="M12.1262 12.9785C11.8049 13.2251 11.4112 13.3588 11.0062 13.3588C10.6012 13.3588 10.2075 13.2251 9.88621 12.9785L8.44888 14.8925C8.41663 14.9352 8.39364 14.9842 8.38136 15.0363C8.36909 15.0884 8.3678 15.1425 8.37759 15.1951C8.38737 15.2477 8.40801 15.2977 8.43819 15.3419C8.46837 15.3861 8.50743 15.4236 8.55288 15.4518C9.28637 15.9186 10.1378 16.1666 11.0072 16.1666C11.8766 16.1666 12.728 15.9186 13.4615 15.4518C13.5068 15.4234 13.5457 15.3859 13.5758 15.3417C13.6059 15.2975 13.6264 15.2476 13.6362 15.195C13.646 15.1424 13.6447 15.0884 13.6326 15.0363C13.6204 14.9843 13.5976 14.9353 13.5655 14.8925L12.1262 12.9785Z" stroke="white" stroke-width="0.666667" stroke-linecap="round" stroke-linejoin="round"/>
<path d="M10.1719 9.85264L9.10526 7.7133C9.08125 7.66532 9.04751 7.62286 9.00617 7.58865C8.96484 7.55443 8.91682 7.52921 8.8652 7.5146C8.81357 7.49998 8.75946 7.49629 8.70632 7.50376C8.65319 7.51123 8.60219 7.52969 8.55659 7.55797C7.93801 7.93561 7.41615 8.45247 7.03258 9.0674C6.64902 9.68233 6.41435 10.3783 6.34726 11.1C6.34245 11.1534 6.3488 11.2072 6.3659 11.258C6.383 11.3088 6.41048 11.3555 6.44659 11.3951C6.4827 11.4347 6.52665 11.4664 6.57566 11.4881C6.62466 11.5099 6.67765 11.5212 6.73126 11.5213H9.13126C9.13271 11.174 9.23083 10.8339 9.41463 10.5392C9.59843 10.2445 9.86065 10.0067 10.1719 9.85264Z" stroke="white" stroke-width="0.666667" stroke-linecap="round" stroke-linejoin="round"/>
<path d="M10.6953 11.4993C10.6953 11.5878 10.7304 11.6725 10.7929 11.7351C10.8555 11.7976 10.9402 11.8327 11.0286 11.8327C11.1171 11.8327 11.2018 11.7976 11.2643 11.7351C11.3269 11.6725 11.362 11.5878 11.362 11.4993C11.362 11.4109 11.3269 11.3262 11.2643 11.2636C11.2018 11.2011 11.1171 11.166 11.0286 11.166C10.9402 11.166 10.8555 11.2011 10.7929 11.2636C10.7304 11.3262 10.6953 11.4109 10.6953 11.4993Z" stroke="white" stroke-width="0.666667" stroke-linecap="round" stroke-linejoin="round"/>
<path d="M3.00065 4.16634C3.00065 3.90263 2.92245 3.64485 2.77594 3.42558C2.62944 3.20632 2.4212 3.03542 2.17756 2.9345C1.93393 2.83359 1.66584 2.80718 1.4072 2.85863C1.14856 2.91007 0.910979 3.03706 0.724509 3.22353C0.538039 3.41 0.411052 3.64758 0.359605 3.90622C0.308158 4.16486 0.334562 4.43295 0.435479 4.67659C0.536396 4.92022 0.707292 5.12846 0.926558 5.27497C1.14582 5.42148 1.40361 5.49968 1.66732 5.49968H15.6673" stroke="white" stroke-width="0.666667" stroke-linecap="round" stroke-linejoin="round"/>
<path d="M7.66667 2.16634C7.66667 1.90263 7.58847 1.64485 7.44196 1.42558C7.29545 1.20632 7.08721 1.03542 6.84358 0.934502C6.59994 0.833586 6.33186 0.807181 6.07321 0.858628C5.81457 0.910075 5.577 1.03706 5.39053 1.22353C5.20406 1.41 5.07707 1.64758 5.02562 1.90622C4.97417 2.16486 5.00058 2.43295 5.10149 2.67659C5.20241 2.92022 5.37331 3.12846 5.59257 3.27497C5.81184 3.42148 6.06963 3.49968 6.33333 3.49968H14.6667" stroke="white" stroke-width="0.666667" stroke-linecap="round" stroke-linejoin="round"/>
<path d="M5.00065 8.83333C5.00065 9.09704 4.92245 9.35483 4.77594 9.57409C4.62944 9.79336 4.4212 9.96426 4.17756 10.0652C3.93393 10.1661 3.66584 10.1925 3.4072 10.141C3.14856 10.0896 2.91098 9.96261 2.72451 9.77614C2.53804 9.58967 2.41105 9.3521 2.3596 9.09345C2.30816 8.83481 2.33456 8.56672 2.43548 8.32309C2.5364 8.07945 2.70729 7.87122 2.92656 7.72471C3.14582 7.5782 3.40361 7.5 3.66732 7.5H5.66732" stroke="white" stroke-width="0.666667" stroke-linecap="round" stroke-linejoin="round"/>
</g>
<defs>
<clipPath id="clip0_3694_116962">
<rect width="16" height="16" fill="white" transform="translate(0 0.5)"/>
</clipPath>
</defs>
</svg>
