<svg width="16" height="17" viewBox="0 0 16 17" fill="none" xmlns="http://www.w3.org/2000/svg">
<g clip-path="url(#clip0_3694_116886)">
<path d="M11.3346 4.66667C11.3346 5.06667 11.068 5.33333 10.668 5.33333H5.33464C4.93464 5.33333 4.66797 5.06667 4.66797 4.66667V1.66667C4.66797 1.26667 4.93464 1 5.33464 1H10.668C11.068 1 11.3346 1.26667 11.3346 1.66667V4.66667Z" stroke="white" stroke-width="0.666667" stroke-miterlimit="10" stroke-linecap="round" stroke-linejoin="round"/>
<path d="M6.86719 3V3.33333" stroke="white" stroke-width="0.666667" stroke-miterlimit="10" stroke-linecap="round" stroke-linejoin="round"/>
<path d="M9.20117 3V3.33333" stroke="white" stroke-width="0.666667" stroke-miterlimit="10" stroke-linecap="round" stroke-linejoin="round"/>
<path d="M11.1069 8.36719C9.41767 10.0339 6.57981 10.0339 4.89062 8.36719" stroke="white" stroke-width="0.666667" stroke-miterlimit="10" stroke-linecap="round" stroke-linejoin="round"/>
<path d="M13.271 10.5C10.3656 13.3667 5.63588 13.3667 2.73047 10.5" stroke="white" stroke-width="0.666667" stroke-miterlimit="10" stroke-linecap="round" stroke-linejoin="round"/>
<path d="M15.5 13.0325C11.3108 17.0325 4.68919 16.9658 0.5 12.9658" stroke="white" stroke-width="0.666667" stroke-miterlimit="10" stroke-linecap="round" stroke-linejoin="round"/>
</g>
<defs>
<clipPath id="clip0_3694_116886">
<rect width="16" height="16" fill="white" transform="translate(0 0.5)"/>
</clipPath>
</defs>
</svg>
