<svg width="16" height="17" viewBox="0 0 16 17" fill="none" xmlns="http://www.w3.org/2000/svg">
<g clip-path="url(#clip0_3694_116953)">
<path d="M4.33398 4.49967C4.33398 3.52721 4.72029 2.59458 5.40793 1.90695C6.09556 1.21932 7.02819 0.833008 8.00065 0.833008C8.97311 0.833008 9.90574 1.21932 10.5934 1.90695C11.281 2.59458 11.6673 3.52721 11.6673 4.49967V6.83301" stroke="white" stroke-width="0.666667" stroke-linecap="round" stroke-linejoin="round"/>
<path d="M3.00065 6.83301H13.0007C13.0007 6.83301 13.6673 6.83301 13.6673 7.49967V15.4997C13.6673 15.4997 13.6673 16.1663 13.0007 16.1663H3.00065C3.00065 16.1663 2.33398 16.1663 2.33398 15.4997V7.49967C2.33398 7.49967 2.33398 6.83301 3.00065 6.83301Z" stroke="white" stroke-width="0.666667" stroke-linecap="round" stroke-linejoin="round"/>
<path d="M10.2699 11.7475C9.65916 11.1601 8.84467 10.832 7.99728 10.832C7.14988 10.832 6.33539 11.1601 5.72461 11.7475" stroke="white" stroke-width="0.666667" stroke-linecap="round" stroke-linejoin="round"/>
<path d="M11.634 10.299C10.6568 9.35904 9.35357 8.83398 7.99766 8.83398C6.64176 8.83398 5.33852 9.35904 4.36133 10.299" stroke="white" stroke-width="0.666667" stroke-linecap="round" stroke-linejoin="round"/>
<path d="M7.33398 13.4997C7.33398 13.6765 7.40422 13.8461 7.52925 13.9711C7.65427 14.0961 7.82384 14.1663 8.00065 14.1663C8.17746 14.1663 8.34703 14.0961 8.47206 13.9711C8.59708 13.8461 8.66732 13.6765 8.66732 13.4997C8.66732 13.3229 8.59708 13.1533 8.47206 13.0283C8.34703 12.9032 8.17746 12.833 8.00065 12.833C7.82384 12.833 7.65427 12.9032 7.52925 13.0283C7.40422 13.1533 7.33398 13.3229 7.33398 13.4997Z" stroke="white" stroke-width="0.666667" stroke-linecap="round" stroke-linejoin="round"/>
</g>
<defs>
<clipPath id="clip0_3694_116953">
<rect width="16" height="16" fill="white" transform="translate(0 0.5)"/>
</clipPath>
</defs>
</svg>
