<svg width="16" height="17" viewBox="0 0 16 17" fill="none" xmlns="http://www.w3.org/2000/svg">
<g clip-path="url(#clip0_3694_116937)">
<path d="M6.45117 0.833008V1.49967" stroke="white" stroke-width="0.666667" stroke-linecap="round" stroke-linejoin="round"/>
<path d="M1.7832 2.16797L2.44987 2.83464" stroke="white" stroke-width="0.666667" stroke-linecap="round" stroke-linejoin="round"/>
<path d="M11.1178 2.16602L10.4512 2.83268" stroke="white" stroke-width="0.666667" stroke-linecap="round" stroke-linejoin="round"/>
<path d="M0.451172 6.83301H1.11784" stroke="white" stroke-width="0.666667" stroke-linecap="round" stroke-linejoin="round"/>
<path d="M9.44184 4.1816C8.90337 3.57534 8.19336 3.14706 7.40594 2.95351C6.61851 2.75996 5.79086 2.8103 5.03269 3.09785C4.27453 3.3854 3.62166 3.89657 3.16063 4.56362C2.6996 5.23066 2.45218 6.02207 2.45117 6.83293C2.45073 7.27775 2.52603 7.71939 2.67384 8.13893" stroke="white" stroke-width="0.666667" stroke-linecap="round" stroke-linejoin="round"/>
<path d="M5.02031 7.00434C5.04919 6.95241 5.09142 6.90914 5.14265 6.87901C5.19387 6.84889 5.25221 6.83301 5.31164 6.83301H12.253C12.3124 6.83301 12.3707 6.84889 12.422 6.87901C12.4732 6.90914 12.5154 6.95241 12.5443 7.00434L15.507 12.3377C15.5352 12.3884 15.5497 12.4456 15.549 12.5037C15.5483 12.5618 15.5324 12.6186 15.503 12.6687C15.4735 12.7187 15.4315 12.7602 15.3811 12.789C15.3307 12.8178 15.2737 12.833 15.2156 12.833H2.34897C2.29091 12.833 2.23386 12.8178 2.18346 12.789C2.13307 12.7602 2.09107 12.7187 2.06164 12.6687C2.0322 12.6186 2.01635 12.5618 2.01565 12.5037C2.01495 12.4456 2.02942 12.3884 2.05764 12.3377L5.02031 7.00434Z" stroke="white" stroke-width="0.666667" stroke-linecap="round" stroke-linejoin="round"/>
<path d="M7.7832 12.833V16.1663" stroke="white" stroke-width="0.666667" stroke-linecap="round" stroke-linejoin="round"/>
<path d="M9.7832 16.1663V12.833" stroke="white" stroke-width="0.666667" stroke-linecap="round" stroke-linejoin="round"/>
<path d="M7.45052 6.83301L6.11719 12.833" stroke="white" stroke-width="0.666667" stroke-linecap="round" stroke-linejoin="round"/>
<path d="M10.1172 6.83301L11.4505 12.833" stroke="white" stroke-width="0.666667" stroke-linecap="round" stroke-linejoin="round"/>
<path d="M4.00391 8.83301H13.5592" stroke="white" stroke-width="0.666667" stroke-linecap="round" stroke-linejoin="round"/>
<path d="M2.89258 10.833H14.6706" stroke="white" stroke-width="0.666667" stroke-linecap="round" stroke-linejoin="round"/>
</g>
<defs>
<clipPath id="clip0_3694_116937">
<rect width="16" height="16" fill="white" transform="translate(0 0.5)"/>
</clipPath>
</defs>
</svg>
