<svg width="16" height="17" viewBox="0 0 16 17" fill="none" xmlns="http://www.w3.org/2000/svg">
<g clip-path="url(#clip0_3694_116904)">
<path d="M8.00039 12.8383C12.2279 12.8383 15.6551 10.7522 15.6551 8.17892C15.6551 5.6056 12.2279 3.51953 8.00039 3.51953C3.77282 3.51953 0.345703 5.6056 0.345703 8.17892C0.345703 10.7522 3.77282 12.8383 8.00039 12.8383Z" stroke="white" stroke-width="0.666667" stroke-linecap="round" stroke-linejoin="round"/>
<path d="M15.6551 8.17969V11.5078C15.6551 14.0812 12.2278 16.1672 8.00039 16.1672C3.77301 16.1672 0.345703 14.0812 0.345703 11.5078V8.17969" stroke="white" stroke-width="0.666667" stroke-linecap="round" stroke-linejoin="round"/>
<path d="M8.00078 9.84373C10.0227 9.84373 11.6617 9.09873 11.6617 8.17966C11.6617 7.26066 10.0227 6.51562 8.00078 6.51562C5.9789 6.51562 4.33984 7.26066 4.33984 8.17966C4.33984 9.09873 5.9789 9.84373 8.00078 9.84373Z" stroke="white" stroke-width="0.666667" stroke-linecap="round" stroke-linejoin="round"/>
<path d="M6.35908 12.7301C6.18802 11.894 6.98811 11.1738 7.99984 11.1738C9.01158 11.1738 9.81164 11.8954 9.64058 12.7301" stroke="white" stroke-width="0.666667" stroke-linecap="round" stroke-linejoin="round"/>
<path d="M15.6545 3.51947C15.6545 2.80709 15.3716 2.12388 14.8679 1.62009C14.3643 1.1163 13.6811 0.833184 12.9688 0.833008" stroke="white" stroke-width="0.666667" stroke-linecap="round" stroke-linejoin="round"/>
<path d="M0.345703 3.52044C0.345703 2.80806 0.628649 2.12486 1.13231 1.62106C1.63598 1.11728 2.31912 0.834161 3.0315 0.833984" stroke="white" stroke-width="0.666667" stroke-linecap="round" stroke-linejoin="round"/>
<path d="M8.00065 8.34701C7.90858 8.34701 7.83398 8.27234 7.83398 8.18034C7.83398 8.08827 7.90858 8.01367 8.00065 8.01367" stroke="white" stroke-width="0.666667"/>
<path d="M8 8.34603C8.09207 8.34603 8.16667 8.27136 8.16667 8.17936C8.16667 8.0873 8.09207 8.0127 8 8.0127" stroke="white" stroke-width="0.666667"/>
</g>
<defs>
<clipPath id="clip0_3694_116904">
<rect width="16" height="16" fill="white" transform="translate(0 0.5)"/>
</clipPath>
</defs>
</svg>
