<svg width="141" height="144" viewBox="0 0 141 144" fill="none" xmlns="http://www.w3.org/2000/svg">
<path d="M70.4162 0C81.6104 0 80.3736 5.28642 91.0194 8.7364C101.665 12.1884 103.78 7.18599 112.836 13.7506C121.892 20.3153 117.777 23.8659 124.358 32.9001C130.938 41.9344 135.593 39.1294 139.053 49.7496C142.513 60.3699 137.092 60.8314 137.092 72C137.092 83.1686 142.513 83.6282 139.053 94.2504C135.593 104.871 130.938 102.066 124.358 111.1C117.777 120.134 121.892 123.687 112.836 130.249C103.78 136.814 101.665 131.814 91.0194 135.264C80.3736 138.716 81.6084 144 70.4162 144C59.224 144 60.4587 138.714 49.8129 135.264C39.167 131.812 37.0524 136.814 27.9965 130.249C18.9405 123.685 23.0552 120.134 16.4748 111.1C9.89437 102.066 5.23915 104.871 1.7793 94.2504C-1.68055 83.6301 3.7401 83.1686 3.7401 72C3.7401 60.8314 -1.68055 60.3718 1.7793 49.7496C5.23915 39.1294 9.89437 41.9344 16.4748 32.9001C23.0552 23.8659 18.9405 20.3133 27.9965 13.7506C37.0524 7.18599 39.167 12.1864 49.8129 8.7364C60.4587 5.28444 59.224 0 70.4162 0Z" fill="url(#paint0_linear_5896_12513)"/>
<mask id="mask0_5896_12513" style="mask-type:luminance" maskUnits="userSpaceOnUse" x="0" y="0" width="141" height="144">
<path d="M70.4162 0C81.6104 0 80.3736 5.28642 91.0194 8.7364C101.665 12.1884 103.78 7.18599 112.836 13.7506C121.892 20.3153 117.777 23.8659 124.358 32.9001C130.938 41.9344 135.593 39.1294 139.053 49.7496C142.513 60.3699 137.092 60.8314 137.092 72C137.092 83.1686 142.513 83.6282 139.053 94.2504C135.593 104.871 130.938 102.066 124.358 111.1C117.777 120.134 121.892 123.687 112.836 130.249C103.78 136.814 101.665 131.814 91.0194 135.264C80.3736 138.716 81.6084 144 70.4162 144C59.224 144 60.4587 138.714 49.8129 135.264C39.167 131.812 37.0524 136.814 27.9965 130.249C18.9405 123.685 23.0552 120.134 16.4748 111.1C9.89437 102.066 5.23915 104.871 1.7793 94.2504C-1.68055 83.6301 3.7401 83.1686 3.7401 72C3.7401 60.8314 -1.68055 60.3718 1.7793 49.7496C5.23915 39.1294 9.89437 41.9344 16.4748 32.9001C23.0552 23.8659 18.9405 20.3133 27.9965 13.7506C37.0524 7.18599 39.167 12.1864 49.8129 8.7364C60.4587 5.28444 59.224 0 70.4162 0Z" fill="white"/>
</mask>
<g mask="url(#mask0_5896_12513)">
<path d="M-55.1608 -6.76153C-69.1955 -15.3145 9.54865 -59.0933 47.1158 42.4378C55.0317 63.832 54.2584 87.5362 44.6896 108.244C11.815 179.396 -64.2188 87.26 -64.2188 87.26L-55.1628 -6.76153H-55.1608Z" fill="url(#paint1_linear_5896_12513)"/>
<path d="M62.013 -45.3838C112.556 -133.466 -29.454 -9.67866 93.7948 73.1546C173.265 126.565 227.749 12.2719 227.749 12.2719L62.013 -45.3857V-45.3838Z" fill="url(#paint2_linear_5896_12513)"/>
</g>
<path d="M118.908 46.4791L92.5511 31.3438L71.7428 41.8397L70.4152 44.1436L69.0877 41.8397L48.2793 31.3438L21.9241 46.4791L14.3691 77.5073L40.3437 104.585L70.4152 122.156L100.489 104.585L126.461 77.5073L118.908 46.4791Z" fill="url(#paint3_linear_5896_12513)"/>
<path style="mix-blend-mode:color-dodge" opacity="0.5" d="M14.3691 77.5073L18.4208 76.4185L25.1235 48.8837L48.3917 35.5196L66.4504 44.6289L69.0877 41.8397L48.2793 31.3438L21.9241 46.4791L14.3691 77.5073Z" fill="url(#paint4_linear_5896_12513)"/>
<path style="mix-blend-mode:color-dodge" opacity="0.5" d="M71.7441 41.8397L74.3814 44.6289L92.4401 35.5196L115.708 48.8837L118.91 46.4791L92.5525 31.3438L71.7441 41.8397Z" fill="url(#paint5_linear_5896_12513)"/>
<path style="mix-blend-mode:color-dodge" opacity="0.5" d="M21.9238 46.4791L25.1232 48.8837L48.3914 35.5196L48.279 31.3438L21.9238 46.4791Z" fill="url(#paint6_linear_5896_12513)"/>
<path d="M48.2794 31.3457L48.3918 35.5216C48.3918 35.5216 47.5732 34.6853 47.5456 33.772C47.5199 32.8587 48.2794 31.3438 48.2794 31.3438V31.3457Z" fill="url(#paint7_linear_5896_12513)"/>
<path style="mix-blend-mode:color-dodge" opacity="0.5" d="M71.7441 41.8397L74.3814 44.6289L92.4401 35.5196L92.5525 31.3438L71.7441 41.8397Z" fill="url(#paint8_linear_5896_12513)"/>
<path d="M92.5514 31.2461L92.439 35.5186C92.439 35.5186 90.1114 35.4969 90.289 34.4732C90.4665 33.4494 92.5534 31.2461 92.5534 31.2461H92.5514Z" fill="url(#paint9_linear_5896_12513)"/>
<path d="M69.0865 41.8359L66.4492 44.6251L70.4141 51.5073V44.1399L69.0865 41.8359Z" fill="url(#paint10_linear_5896_12513)"/>
<path d="M42.5411 101.559L40.3457 104.583L70.4172 122.154V117.893L42.5411 101.559Z" fill="url(#paint11_linear_5896_12513)"/>
<path d="M98.0625 101.745L100.489 104.588L126.461 77.5107L122.412 76.4219L98.0625 101.745Z" fill="url(#paint12_linear_5896_12513)"/>
<path d="M14.3691 77.5107L18.4208 76.4219L42.5391 101.564L40.3437 104.588L14.3691 77.5107Z" fill="url(#paint13_linear_5896_12513)"/>
<path d="M18.7344 59.5926L21.9279 46.4791L48.2831 31.3438L22.4111 46.9427L18.7344 59.5926Z" fill="url(#paint14_linear_5896_12513)"/>
<path style="mix-blend-mode:multiply" opacity="0.5" d="M42.5411 101.564L70.4173 117.899L98.0644 101.745L122.414 76.4219L126.463 77.5107L100.491 104.588L70.4173 122.159L40.3457 104.588L42.5411 101.564Z" fill="url(#paint15_linear_5896_12513)"/>
<path d="M74.3809 44.6249L92.4396 35.5156L82.206 39.3818L74.3809 44.6249Z" fill="url(#paint16_linear_5896_12513)"/>
<path d="M104.223 83.5968L106.925 92.3628C107.771 95.1066 109.919 97.2547 112.663 98.101L121.429 100.803C122.173 101.032 122.173 102.084 121.429 102.314L112.663 105.017C109.919 105.863 107.771 108.011 106.925 110.755L104.223 119.521C103.994 120.265 102.942 120.265 102.712 119.521L100.009 110.755C99.163 108.011 97.0148 105.863 94.271 105.017L85.505 102.314C84.7614 102.086 84.7614 101.034 85.505 100.803L94.271 98.101C97.0148 97.2547 99.163 95.1066 100.009 92.3628L102.712 83.5968C102.94 82.8531 103.992 82.8531 104.223 83.5968Z" fill="white"/>
<path d="M37.2619 47.1028L38.3646 50.6771C38.7098 51.7955 39.5856 52.6733 40.706 53.0185L44.2803 54.1212C44.584 54.2139 44.584 54.6439 44.2803 54.7366L40.706 55.8393C39.5876 56.1845 38.7098 57.0603 38.3646 58.1807L37.2619 61.7549C37.1692 62.0587 36.7392 62.0587 36.6465 61.7549L35.5438 58.1807C35.1986 57.0622 34.3228 56.1845 33.2024 55.8393L29.6282 54.7366C29.3244 54.6439 29.3244 54.2139 29.6282 54.1212L33.2024 53.0185C34.3208 52.6733 35.1986 51.7975 35.5438 50.6771L36.6465 47.1028C36.7392 46.7991 37.1692 46.7991 37.2619 47.1028Z" fill="white"/>
<defs>
<linearGradient id="paint0_linear_5896_12513" x1="0.625373" y1="72" x2="140.207" y2="72" gradientUnits="userSpaceOnUse">
<stop stop-color="#556EFF"/>
<stop offset="1" stop-color="#000057"/>
</linearGradient>
<linearGradient id="paint1_linear_5896_12513" x1="-49.81" y1="103.261" x2="31.1637" y2="5.52008" gradientUnits="userSpaceOnUse">
<stop stop-color="#556EFF"/>
<stop offset="1" stop-color="#000057"/>
</linearGradient>
<linearGradient id="paint2_linear_5896_12513" x1="65.3377" y1="48.5288" x2="177.529" y2="-46.8188" gradientUnits="userSpaceOnUse">
<stop stop-color="#556EFF"/>
<stop offset="1" stop-color="#000057"/>
</linearGradient>
<linearGradient id="paint3_linear_5896_12513" x1="14.3691" y1="76.7499" x2="126.461" y2="76.7499" gradientUnits="userSpaceOnUse">
<stop stop-color="#FFC42A"/>
<stop offset="1" stop-color="#FFE82A"/>
</linearGradient>
<linearGradient id="paint4_linear_5896_12513" x1="43.4524" y1="65.6188" x2="37.4145" y2="44.7906" gradientUnits="userSpaceOnUse">
<stop stop-color="#EBBD38"/>
<stop offset="1"/>
</linearGradient>
<linearGradient id="paint5_linear_5896_12513" x1="95.326" y1="41.7351" x2="95.326" y2="63.0663" gradientUnits="userSpaceOnUse">
<stop stop-color="#EBBD38"/>
<stop offset="1"/>
</linearGradient>
<linearGradient id="paint6_linear_5896_12513" x1="43.7816" y1="30.6672" x2="15.0297" y2="65.1118" gradientUnits="userSpaceOnUse">
<stop stop-color="#EBBD38"/>
<stop offset="1"/>
</linearGradient>
<linearGradient id="paint7_linear_5896_12513" x1="47.5456" y1="33.4327" x2="48.3918" y2="33.4327" gradientUnits="userSpaceOnUse">
<stop stop-color="white"/>
<stop offset="1" stop-color="#FFF7C4"/>
</linearGradient>
<linearGradient id="paint8_linear_5896_12513" x1="77.2633" y1="41.5537" x2="101.109" y2="27.3652" gradientUnits="userSpaceOnUse">
<stop stop-color="#EBBD38"/>
<stop offset="1"/>
</linearGradient>
<linearGradient id="paint9_linear_5896_12513" x1="90.2791" y1="33.3824" x2="92.5515" y2="33.3824" gradientUnits="userSpaceOnUse">
<stop stop-color="white"/>
<stop offset="1" stop-color="#FFF7C4"/>
</linearGradient>
<linearGradient id="paint10_linear_5896_12513" x1="67.3112" y1="62.3899" x2="69.1891" y2="38.3761" gradientUnits="userSpaceOnUse">
<stop stop-color="#FFC117"/>
<stop offset="0.22" stop-color="#F6AF1A"/>
<stop offset="0.65" stop-color="#E08321"/>
<stop offset="1" stop-color="#CC5A29"/>
</linearGradient>
<linearGradient id="paint11_linear_5896_12513" x1="40.4621" y1="126.586" x2="51.7312" y2="116.222" gradientUnits="userSpaceOnUse">
<stop stop-color="#FFC117"/>
<stop offset="0.22" stop-color="#F6AF1A"/>
<stop offset="0.65" stop-color="#E08321"/>
<stop offset="1" stop-color="#CC5A29"/>
</linearGradient>
<linearGradient id="paint12_linear_5896_12513" x1="130.821" y1="65.3598" x2="101.136" y2="104.178" gradientUnits="userSpaceOnUse">
<stop stop-color="#FFC117"/>
<stop offset="0.22" stop-color="#F6AF1A"/>
<stop offset="0.65" stop-color="#E08321"/>
<stop offset="1" stop-color="#CC5A29"/>
</linearGradient>
<linearGradient id="paint13_linear_5896_12513" x1="19.4386" y1="98.2126" x2="36.2861" y2="82.9688" gradientUnits="userSpaceOnUse">
<stop stop-color="#FFC117"/>
<stop offset="0.22" stop-color="#F6AF1A"/>
<stop offset="0.65" stop-color="#E08321"/>
<stop offset="1" stop-color="#CC5A29"/>
</linearGradient>
<linearGradient id="paint14_linear_5896_12513" x1="18.7344" y1="45.4692" x2="48.2831" y2="45.4692" gradientUnits="userSpaceOnUse">
<stop stop-color="white"/>
<stop offset="1" stop-color="#FFF7C4"/>
</linearGradient>
<linearGradient id="paint15_linear_5896_12513" x1="82.4853" y1="134.206" x2="82.8877" y2="115.289" gradientUnits="userSpaceOnUse">
<stop stop-color="white"/>
<stop offset="0.44" stop-color="#ED8A1D"/>
<stop offset="1" stop-color="#B41E2D"/>
</linearGradient>
<linearGradient id="paint16_linear_5896_12513" x1="92.5875" y1="28.0692" x2="78.0952" y2="47.0215" gradientUnits="userSpaceOnUse">
<stop stop-color="white"/>
<stop offset="1" stop-color="#FFF7C4"/>
</linearGradient>
</defs>
</svg>
