<svg width="24" height="24" viewBox="0 0 24 24" fill="none" xmlns="http://www.w3.org/2000/svg">
<g id="Help-Question-1--Streamline-Core" clip-path="url(#clip0_9546_10813)">
<g id="Help-Question-1--Streamline-Core_2">
<path id="Vector" d="M12 22.3057C17.6926 22.3057 22.3072 17.6911 22.3072 11.9985C22.3072 6.30607 17.6926 1.69141 12 1.69141C6.30754 1.69141 1.69287 6.30607 1.69287 11.9985C1.69287 17.6911 6.30754 22.3057 12 22.3057Z" stroke="white" stroke-width="1.5" stroke-linecap="round" stroke-linejoin="round"/>
<g id="Group 2571">
<path id="Vector_2" d="M11.9999 17.1522C11.781 17.1522 11.6035 16.9748 11.6035 16.7558C11.6035 16.5369 11.781 16.3594 11.9999 16.3594" stroke="white" stroke-width="1.5" stroke-linecap="round" stroke-linejoin="round"/>
<path id="Vector_3" d="M12 17.1522C12.2189 17.1522 12.3964 16.9748 12.3964 16.7558C12.3964 16.5369 12.2189 16.3594 12 16.3594" stroke="white" stroke-width="1.5" stroke-linecap="round" stroke-linejoin="round"/>
</g>
<path id="Ellipse 1845" d="M9.2251 9.61875C9.2251 8.08616 10.4675 6.84375 12.0001 6.84375C13.5327 6.84375 14.7751 8.08616 14.7751 9.61875C14.7751 11.1513 13.5327 12.3938 12.0001 12.3938V13.9795" stroke="white" stroke-width="1.5" stroke-linecap="round" stroke-linejoin="round"/>
</g>
</g>
<defs>
<clipPath id="clip0_9546_10813">
<rect width="24" height="24" fill="white"/>
</clipPath>
</defs>
</svg>
