<svg width="24" height="24" viewBox="0 0 24 24" fill="none" xmlns="http://www.w3.org/2000/svg">
<g id="Icon" clip-path="url(#clip0_9546_14035)">
<g id="Icon_2">
<path id="Vector" d="M11.9994 13.5848C14.1889 13.5848 15.9637 11.8099 15.9637 9.62054C15.9637 7.43112 14.1889 5.65625 11.9994 5.65625C9.81003 5.65625 8.03516 7.43112 8.03516 9.62054C8.03516 11.8099 9.81003 13.5848 11.9994 13.5848Z" stroke="white" stroke-width="1.5" stroke-linecap="round" stroke-linejoin="round"/>
<path id="Vector_2" d="M5.22852 19.7684C5.93612 18.6069 6.93064 17.6469 8.11643 16.9809C9.30223 16.3147 10.6394 15.9648 11.9995 15.9648C13.3596 15.9648 14.6968 16.3147 15.8826 16.9809C17.0684 17.6469 18.0628 18.6069 18.7705 19.7684" stroke="white" stroke-width="1.5" stroke-linecap="round" stroke-linejoin="round"/>
<path id="Vector_3" d="M11.9995 22.3057C17.6921 22.3057 22.3067 17.6911 22.3067 11.9985C22.3067 6.30607 17.6921 1.69141 11.9995 1.69141C6.30705 1.69141 1.69238 6.30607 1.69238 11.9985C1.69238 17.6911 6.30705 22.3057 11.9995 22.3057Z" stroke="white" stroke-width="1.5" stroke-linecap="round" stroke-linejoin="round"/>
</g>
</g>
<defs>
<clipPath id="clip0_9546_14035">
<rect width="24" height="24" fill="white"/>
</clipPath>
</defs>
</svg>
