<svg width="24" height="24" viewBox="0 0 24 24" fill="none" xmlns="http://www.w3.org/2000/svg">
<g id="Login-1--Streamline-Core">
<g id="Login-1--Streamline-Core_2">
<path id="Vector" d="M17.9999 17.9983V21.4269C17.9999 21.8815 17.8192 22.3176 17.4977 22.6391C17.1763 22.9605 16.7402 23.1412 16.2856 23.1412H4.28557C3.83091 23.1412 3.39488 22.9605 3.07339 22.6391C2.75191 22.3176 2.57129 21.8815 2.57129 21.4269V2.56975C2.57129 2.11509 2.75191 1.67906 3.07339 1.35757C3.39488 1.03608 3.83091 0.855469 4.28557 0.855469H16.2856C16.7402 0.855469 17.1763 1.03608 17.4977 1.35757C17.8192 1.67906 17.9999 2.11509 17.9999 2.56975V5.99833" stroke="white" stroke-width="1.5" stroke-linecap="round" stroke-linejoin="round"/>
<path id="Vector_2" d="M21.4282 12H9.42822" stroke="white" stroke-width="1.5" stroke-linecap="round" stroke-linejoin="round"/>
<path id="Vector_3" d="M12.8568 8.57031L9.42822 11.9989L12.8568 15.4275" stroke="white" stroke-width="1.5" stroke-linecap="round" stroke-linejoin="round"/>
</g>
</g>
</svg>
