<svg width="65" height="45" viewBox="0 0 65 45" fill="none" xmlns="http://www.w3.org/2000/svg">
<g filter="url(#filter0_d_4766_131081)">
<path fill-rule="evenodd" clip-rule="evenodd" d="M27.9384 34.5872L28.3603 31.8702L27.4203 31.8479H22.9316L26.0511 11.7974C26.0608 11.7367 26.0923 11.6803 26.1381 11.6402C26.1843 11.6001 26.243 11.5781 26.3045 11.5781H33.8731C36.386 11.5781 38.12 12.1081 39.0252 13.1542C39.4497 13.645 39.72 14.158 39.8508 14.7223C39.988 15.3145 39.9903 16.022 39.8565 16.8851L39.8468 16.9479V17.501L40.2712 17.7448C40.6286 17.937 40.9127 18.1569 41.1305 18.4087C41.4935 18.8285 41.7284 19.3619 41.8276 19.994C41.9302 20.6442 41.8963 21.4182 41.7284 22.2943C41.5347 23.3019 41.2216 24.1797 40.7988 24.8977C40.41 25.5594 39.9146 26.1084 39.3263 26.5336C38.7646 26.9378 38.0974 27.2446 37.3429 27.4409C36.6118 27.6338 35.7782 27.7312 34.864 27.7312H34.275C33.8539 27.7312 33.4448 27.8849 33.1237 28.1606C32.8016 28.4419 32.5887 28.8264 32.5234 29.2468L32.4788 29.4915L31.7332 34.2807L31.6995 34.4564C31.6905 34.5121 31.6751 34.5398 31.6525 34.5586C31.6324 34.5758 31.6035 34.5872 31.5752 34.5872H27.9384Z" fill="#28356A"/>
<path fill-rule="evenodd" clip-rule="evenodd" d="M40.6743 17.0117C40.6519 17.1581 40.6259 17.3077 40.597 17.4615C39.5989 22.6564 36.184 24.4511 31.8228 24.4511H29.6021C29.0687 24.4511 28.6192 24.8436 28.5362 25.3769L27.0773 34.758C27.0233 35.1084 27.2895 35.4239 27.638 35.4239H31.5766C32.0429 35.4239 32.4391 35.0804 32.5126 34.6142L32.5512 34.4114L33.2928 29.641L33.3405 29.3793C33.413 28.9115 33.8101 28.5678 34.2764 28.5678H34.8654C38.6813 28.5678 41.6685 26.9975 42.5416 22.4527C42.9062 20.5543 42.7175 18.969 41.7524 17.8542C41.4604 17.5181 41.0981 17.239 40.6743 17.0117Z" fill="#298FC2"/>
<path fill-rule="evenodd" clip-rule="evenodd" d="M39.6292 16.5897C39.4766 16.5446 39.3193 16.5038 39.158 16.4669C38.9957 16.4309 38.8296 16.3991 38.6585 16.3711C38.0597 16.2731 37.4036 16.2266 36.7009 16.2266H30.7687C30.6224 16.2266 30.4837 16.26 30.3596 16.3205C30.0859 16.4538 29.8827 16.7164 29.8334 17.0379L28.5713 25.1407L28.5352 25.377C28.6181 24.8436 29.0677 24.4511 29.6011 24.4511H31.8217C36.1829 24.4511 39.5978 22.6555 40.5959 17.4615C40.6257 17.3078 40.6508 17.1581 40.6732 17.0117C40.4207 16.8759 40.1472 16.7597 39.8527 16.6607C39.78 16.6362 39.7049 16.6126 39.6292 16.5897Z" fill="#22284F"/>
<path fill-rule="evenodd" clip-rule="evenodd" d="M29.8337 17.0396C29.883 16.7182 30.0862 16.4556 30.3599 16.3232C30.4848 16.2625 30.6227 16.229 30.769 16.229H36.7012C37.4039 16.229 38.06 16.2758 38.6588 16.3738C38.8299 16.4016 38.996 16.4336 39.1583 16.4696C39.3196 16.5063 39.4769 16.5473 39.6295 16.5922C39.7052 16.6151 39.7803 16.6389 39.8537 16.6625C40.1482 16.7615 40.4219 16.8786 40.6744 17.0135C40.9714 15.0938 40.6719 13.7867 39.648 12.6031C38.5191 11.2999 36.4818 10.7422 33.8747 10.7422H26.3058C25.7733 10.7422 25.319 11.1347 25.2367 11.669L22.0842 31.9257C22.0221 32.3264 22.327 32.688 22.7257 32.688H27.3984L29.8337 17.0396Z" fill="#28356A"/>
</g>
<defs>
<filter id="filter0_d_4766_131081" x="-4" y="0" width="73" height="53" filterUnits="userSpaceOnUse" color-interpolation-filters="sRGB">
<feFlood flood-opacity="0" result="BackgroundImageFix"/>
<feColorMatrix in="SourceAlpha" type="matrix" values="0 0 0 0 0 0 0 0 0 0 0 0 0 0 0 0 0 0 127 0" result="hardAlpha"/>
<feOffset dy="4"/>
<feGaussianBlur stdDeviation="2"/>
<feComposite in2="hardAlpha" operator="out"/>
<feColorMatrix type="matrix" values="0 0 0 0 0 0 0 0 0 0 0 0 0 0 0 0 0 0 0.25 0"/>
<feBlend mode="normal" in2="BackgroundImageFix" result="effect1_dropShadow_4766_131081"/>
<feBlend mode="normal" in="SourceGraphic" in2="effect1_dropShadow_4766_131081" result="shape"/>
</filter>
</defs>
</svg>
