<svg width="65" height="45" viewBox="0 0 65 45" fill="none" xmlns="http://www.w3.org/2000/svg">
<g filter="url(#filter0_d_4766_130846)">
<path fill-rule="evenodd" clip-rule="evenodd" d="M32.8424 31.5536C30.5787 33.425 27.6424 34.5547 24.4338 34.5547C17.2745 34.5547 11.4707 28.9303 11.4707 21.9922C11.4707 15.0541 17.2745 9.42969 24.4338 9.42969C27.6424 9.42969 30.5787 10.5594 32.8424 12.4308C35.106 10.5594 38.0423 9.42969 41.2509 9.42969C48.4102 9.42969 54.214 15.0541 54.214 21.9922C54.214 28.9303 48.4102 34.5547 41.2509 34.5547C38.0423 34.5547 35.106 33.425 32.8424 31.5536Z" fill="#ED0006"/>
<path fill-rule="evenodd" clip-rule="evenodd" d="M32.8418 31.5538C35.6291 29.2496 37.3966 25.8209 37.3966 21.9922C37.3966 18.1634 35.6291 14.7348 32.8418 12.4306C35.1054 10.5593 38.0416 9.42969 41.2501 9.42969C48.4094 9.42969 54.2132 15.0541 54.2132 21.9922C54.2132 28.9303 48.4094 34.5547 41.2501 34.5547C38.0416 34.5547 35.1054 33.4251 32.8418 31.5538Z" fill="#F9A000"/>
<path fill-rule="evenodd" clip-rule="evenodd" d="M32.8426 31.5525C35.6297 29.2483 37.3971 25.8197 37.3971 21.9911C37.3971 18.1625 35.6297 14.7339 32.8426 12.4297C30.0554 14.7339 28.2881 18.1625 28.2881 21.9911C28.2881 25.8197 30.0554 29.2483 32.8426 31.5525Z" fill="#FF5E00"/>
</g>
<defs>
<filter id="filter0_d_4766_130846" x="-4" y="0" width="73" height="53" filterUnits="userSpaceOnUse" color-interpolation-filters="sRGB">
<feFlood flood-opacity="0" result="BackgroundImageFix"/>
<feColorMatrix in="SourceAlpha" type="matrix" values="0 0 0 0 0 0 0 0 0 0 0 0 0 0 0 0 0 0 127 0" result="hardAlpha"/>
<feOffset dy="4"/>
<feGaussianBlur stdDeviation="2"/>
<feComposite in2="hardAlpha" operator="out"/>
<feColorMatrix type="matrix" values="0 0 0 0 0 0 0 0 0 0 0 0 0 0 0 0 0 0 0.25 0"/>
<feBlend mode="normal" in2="BackgroundImageFix" result="effect1_dropShadow_4766_130846"/>
<feBlend mode="normal" in="SourceGraphic" in2="effect1_dropShadow_4766_130846" result="shape"/>
</filter>
</defs>
</svg>
