<svg width="65" height="47" viewBox="0 0 65 47" fill="none" xmlns="http://www.w3.org/2000/svg">
<g filter="url(#filter0_d_4766_130860)">
<path fill-rule="evenodd" clip-rule="evenodd" d="M52.1782 27.3475H53.7814H53.7828C53.9506 27.3508 54.0899 27.2114 54.0961 27.0341V22.3332C54.0961 21.7428 54.126 21.2096 54.3509 20.6764C54.5054 20.2708 54.8692 19.9977 55.2821 19.9775C56.3076 19.9775 56.2978 21.1663 56.29 22.1002C56.2894 22.179 56.2887 22.2559 56.2887 22.3302V27.0733C56.3086 27.2254 56.4284 27.3408 56.5735 27.3475H58.1909C58.3443 27.3508 58.4764 27.2336 58.4999 27.0733V21.5771C58.4999 20.7321 58.4999 19.5558 58.0799 18.8569C57.6257 18.1038 56.9223 17.8281 56.2019 17.8281C55.0913 17.8281 54.4606 18.3975 54.0107 19.5919H53.9793V18.2559C53.9468 18.1162 53.8305 18.0165 53.6946 18.0119H52.2024C52.0448 18.0078 51.9104 18.1322 51.8935 18.2981V27.0341C51.8955 27.2016 52.0201 27.3387 52.1782 27.3475ZM50.6692 22.7655C50.6692 20.0091 49.3778 17.8402 46.9901 17.8402C44.6636 17.8402 43.3722 19.973 43.3722 22.6736C43.3722 25.3743 44.648 27.5432 46.9901 27.5432C49.2454 27.5432 50.6692 25.43 50.6692 22.7655ZM45.7445 22.398C45.7445 21.3316 45.8199 19.6235 47.006 19.6235C47.5157 19.6235 47.8759 19.866 48.0567 20.4685C48.2675 21.1659 48.2974 22.0485 48.2974 22.7836C48.2974 23.9042 48.2504 25.7418 46.9903 25.7418C45.744 25.7418 45.7443 23.5138 45.7445 22.4333L45.7445 22.398ZM15.6591 27.3656H17.2666H17.268C17.3487 27.3675 17.4268 27.3354 17.485 27.2763C17.5433 27.2172 17.5769 27.136 17.5784 27.0507V22.4221L17.5783 22.3496C17.5777 21.3432 17.5768 20.0121 18.6889 20.0121C19.7171 20.0121 19.7012 21.1816 19.6883 22.1261C19.6869 22.2279 19.6856 22.3272 19.6856 22.4221V27.0522C19.6883 27.2194 19.8125 27.356 19.9704 27.3656H21.5821C21.6625 27.3671 21.7403 27.3348 21.7982 27.2758C21.8562 27.2167 21.8896 27.1358 21.8911 27.0507V22.4221L21.8909 22.312C21.8899 21.8216 21.8886 21.1598 22.042 20.7487C22.1983 20.3284 22.5763 20.047 23.0031 20.0332C23.4686 20.0332 23.8289 20.1989 23.9485 20.7863C24.0095 21.069 24.0016 21.7244 23.9963 22.1591C23.9951 22.2616 23.994 22.3519 23.994 22.4221V27.0522C23.9961 27.2197 24.1206 27.3567 24.2788 27.3656H25.8863C25.9669 27.3675 26.045 27.3354 26.1033 27.2763C26.1616 27.2172 26.1951 27.136 26.1966 27.0507V21.5394C26.1966 21.4051 26.1988 21.2677 26.2011 21.1289C26.2142 20.306 26.2282 19.4301 25.7909 18.8011C25.2607 18.0877 24.408 17.7322 23.5603 17.8711C22.7126 18.01 22.0016 18.6217 21.7003 19.4714C21.2489 18.3673 20.6039 17.8537 19.613 17.8537C18.622 17.8537 17.8859 18.3673 17.4958 19.4714H17.4659V18.3312C17.4574 18.1687 17.3348 18.0389 17.1811 18.0299H15.6819C15.5163 18.0282 15.3797 18.1667 15.3743 18.3417V27.0778C15.3889 27.235 15.51 27.3573 15.6591 27.3656ZM12.8615 27.4318C12.7557 27.5289 12.6035 27.5452 12.4814 27.4724C12.0258 27.0715 11.8885 26.8547 11.6776 26.5219C11.6413 26.4646 11.6028 26.4039 11.5602 26.3383C10.676 27.2902 10.051 27.5749 8.90765 27.5749C7.55361 27.5749 6.5 26.6907 6.5 24.9224C6.5 23.5412 7.2119 22.6028 8.20856 22.1419C8.94451 21.8003 9.92646 21.6943 10.7754 21.6026L10.7754 21.6026L10.7755 21.6026L10.7755 21.6026L10.7755 21.6026C10.9333 21.5855 11.0865 21.569 11.2327 21.5515V21.3316C11.2327 21.2896 11.233 21.2469 11.2334 21.2035C11.2362 20.8286 11.2393 20.4111 11.0377 20.0965C10.8412 19.7832 10.4681 19.6552 10.135 19.6552C9.52131 19.6552 8.97457 19.9881 8.84073 20.6764C8.82377 20.837 8.70697 20.9655 8.55597 20.9897L7.00972 20.8105C6.93256 20.7988 6.86331 20.7541 6.81811 20.687C6.7729 20.6198 6.7557 20.5359 6.77052 20.455C7.1279 18.4547 8.83646 17.8507 10.367 17.8507C11.1501 17.8507 12.1724 18.0706 12.7875 18.6972C13.5096 19.4124 13.5051 20.3486 13.5002 21.3717V21.3717V21.3718V21.3718V21.3718V21.3718C13.4998 21.4563 13.4994 21.5413 13.4994 21.6268V24.2763C13.4994 24.9898 13.7497 25.3447 14.0133 25.7186L14.0133 25.7186C14.0446 25.763 14.0761 25.8077 14.1074 25.8533C14.2099 26.0039 14.2327 26.1922 14.1074 26.3051C13.7785 26.5958 13.1947 27.132 12.8744 27.4348L12.8615 27.4318ZM11.24 23.2836L11.2401 23.3661C11.2406 23.9926 11.2411 24.5239 10.9396 25.0911C10.6833 25.5701 10.2775 25.8653 9.82476 25.8653C9.20826 25.8653 8.84803 25.3682 8.84803 24.6302C8.84803 23.1812 10.0768 22.9176 11.24 22.9176V23.2836ZM35.0942 25.7124L35.0943 25.7126L35.0945 25.7128L35.0946 25.713L35.0948 25.7133C35.1259 25.7574 35.1573 25.8019 35.1884 25.8472C35.2966 26.0039 35.3194 26.1876 35.1813 26.2916C34.8524 26.5823 34.2686 27.12 33.9483 27.4212C33.8417 27.517 33.6901 27.5326 33.5681 27.4604C33.1106 27.0577 32.9751 26.8441 32.7611 26.5069L32.7611 26.5068C32.7253 26.4506 32.6874 26.3908 32.6455 26.3262C31.7627 27.2781 31.1334 27.5628 29.9944 27.5628C28.6403 27.5628 27.5867 26.6787 27.5867 24.9119C27.5867 23.5292 28.2944 22.5908 29.3024 22.1299C30.04 21.7869 31.0274 21.6814 31.8788 21.5904C32.0333 21.5739 32.1833 21.5578 32.3266 21.5409V21.3256C32.3266 21.2838 32.3269 21.2412 32.3272 21.1981C32.33 20.823 32.3331 20.4054 32.1301 20.092C31.9393 19.7787 31.5591 19.6491 31.2274 19.6491C30.6137 19.6491 30.0698 19.982 29.9346 20.6704C29.9171 20.8307 29.8006 20.9589 29.6498 20.9836L28.0908 20.8059C28.013 20.7946 27.9432 20.7499 27.8976 20.6824C27.8521 20.6148 27.8349 20.5303 27.8501 20.4489C28.2089 18.4472 29.9175 17.8447 31.4481 17.8447C32.2297 17.8447 33.252 18.0646 33.8685 18.6912C34.5921 19.4026 34.587 20.3316 34.5814 21.3495C34.5809 21.4393 34.5804 21.5297 34.5804 21.6208V24.2717C34.5804 24.9838 34.8306 25.3386 35.0942 25.7124ZM30.9141 25.8562C31.3654 25.8562 31.7726 25.561 32.0275 25.0835C32.3301 24.5132 32.3298 23.9795 32.3294 23.3451L32.3294 23.2776V22.9101C31.1661 22.9101 29.9374 23.1722 29.9374 24.6226C29.9374 25.3592 30.2976 25.8562 30.9141 25.8562ZM36.5491 18.3116V19.5557C36.5483 19.6411 36.5805 19.7231 36.6384 19.7825C36.6962 19.842 36.7746 19.8738 36.8552 19.8705H39.6231L36.4494 24.6904C36.3046 24.949 36.2362 25.2474 36.253 25.5475V26.8202C36.253 27.004 36.4452 27.2133 36.6288 27.1094C38.3792 26.1493 40.4608 26.1453 42.2144 27.0989C42.4152 27.2088 42.6045 26.9964 42.6045 26.8127V25.4752C42.5991 25.2706 42.4904 25.0849 42.3198 24.9887C41.3957 24.4389 40.3208 24.2777 39.3042 24.3033L42.0436 20.1673C42.2984 19.7967 42.4408 19.5618 42.4408 19.3825V18.3116C42.4416 18.2265 42.4095 18.1448 42.352 18.0854C42.2945 18.0259 42.2165 17.9939 42.1361 17.9968H36.8495C36.7691 17.992 36.6904 18.0235 36.6332 18.0835C36.5759 18.1436 36.5454 18.2264 36.5491 18.3116Z" fill="white"/>
<path fill-rule="evenodd" clip-rule="evenodd" d="M39.1928 32.9222C39.5587 31.9598 40.3732 29.8029 39.9859 29.2802H39.9887C39.6032 28.7564 37.4389 29.0313 36.4655 29.1549L36.4634 29.1552C36.1672 29.1928 36.1217 28.9202 36.3879 28.7229C38.1164 27.4381 40.9484 27.8056 41.2773 28.2394C41.6062 28.6732 41.1876 31.6766 39.5687 33.1105C39.3195 33.3304 39.0818 33.2129 39.1928 32.9222ZM27.562 34.4074C31.3265 34.4074 35.7104 33.1497 38.7303 30.7925V30.797C39.2301 30.3994 38.8015 29.8149 38.2918 30.0439C34.9955 31.5148 31.457 32.2825 27.8795 32.3032C22.9162 32.3032 18.1151 30.8633 14.231 28.4729C13.8907 28.2635 13.6372 28.6326 13.922 28.9022C17.6613 32.4712 22.5257 34.4345 27.562 34.4074Z" fill="#FF9900"/>
</g>
<defs>
<filter id="filter0_d_4766_130860" x="-4" y="0.515625" width="73" height="54.1719" filterUnits="userSpaceOnUse" color-interpolation-filters="sRGB">
<feFlood flood-opacity="0" result="BackgroundImageFix"/>
<feColorMatrix in="SourceAlpha" type="matrix" values="0 0 0 0 0 0 0 0 0 0 0 0 0 0 0 0 0 0 127 0" result="hardAlpha"/>
<feOffset dy="4"/>
<feGaussianBlur stdDeviation="2"/>
<feComposite in2="hardAlpha" operator="out"/>
<feColorMatrix type="matrix" values="0 0 0 0 0 0 0 0 0 0 0 0 0 0 0 0 0 0 0.25 0"/>
<feBlend mode="normal" in2="BackgroundImageFix" result="effect1_dropShadow_4766_130860"/>
<feBlend mode="normal" in="SourceGraphic" in2="effect1_dropShadow_4766_130860" result="shape"/>
</filter>
</defs>
</svg>
