<svg width="24" height="24" viewBox="0 0 24 24" fill="none" xmlns="http://www.w3.org/2000/svg">
<g id="Ribbon--Streamline-Core">
<g id="Ribbon--Streamline-Core_2">
<path id="Vector" d="M11.9997 16.019C15.9939 16.019 19.2319 12.781 19.2319 8.78683C19.2319 4.79263 15.9939 1.55469 11.9997 1.55469C8.00552 1.55469 4.76758 4.79263 4.76758 8.78683C4.76758 12.781 8.00552 16.019 11.9997 16.019Z" stroke="white" stroke-width="1.5" stroke-linecap="round" stroke-linejoin="round"/>
<path id="Vector_2" d="M11.9999 12.0028C13.7751 12.0028 15.2142 10.5637 15.2142 8.7885C15.2142 7.0133 13.7751 5.57422 11.9999 5.57422C10.2247 5.57422 8.78564 7.0133 8.78564 8.7885C8.78564 10.5637 10.2247 12.0028 11.9999 12.0028Z" stroke="white" stroke-width="1.5" stroke-linecap="round" stroke-linejoin="round"/>
<path id="Vector_3" d="M6.56128 13.5547C7.52172 14.6495 8.80746 15.4518 10.2675 15.8107L9.195 20.9053C8.98426 21.9062 7.90437 22.4582 6.96961 22.0428L3.48514 20.4942C2.51406 20.0626 2.22172 18.8242 2.89727 18.0039L6.56128 13.5547Z" stroke="white" stroke-width="1.5" stroke-linecap="round" stroke-linejoin="round"/>
<path id="Vector_4" d="M13.7324 15.8107C15.1925 15.4518 16.4782 14.6495 17.4387 13.5547L21.1026 18.0039C21.7783 18.8242 21.486 20.0626 20.5148 20.4942L17.0303 22.0428C16.0956 22.4582 15.0157 21.9062 14.8049 20.9053L13.7324 15.8107Z" stroke="white" stroke-width="1.5" stroke-linecap="round" stroke-linejoin="round"/>
</g>
</g>
</svg>
