<svg width="24" height="24" viewBox="0 0 24 24" fill="none" xmlns="http://www.w3.org/2000/svg">
<g id="Cog-1--Streamline-Core">
<g id="Cog-1--Streamline-Core_2">
<path id="Vector" d="M9.87521 2.70626L9.19335 4.46641L6.8465 5.79841L4.97535 5.51298C4.66378 5.47069 4.34668 5.52197 4.06433 5.66032C3.78198 5.79868 3.54713 6.01784 3.38964 6.28998L2.75535 7.39998C2.59282 7.67645 2.51792 7.9957 2.54058 8.3156C2.56323 8.6355 2.68235 8.94102 2.88221 9.19184L4.0715 10.6666V13.3305L2.91392 14.8053C2.71406 15.0561 2.59494 15.3616 2.5723 15.6815C2.54964 16.0014 2.62453 16.3207 2.78707 16.5971L3.42135 17.7071C3.57885 17.9792 3.81369 18.1984 4.09604 18.3368C4.3784 18.4751 4.69549 18.5265 5.00707 18.4841L6.87821 18.1987L9.19335 19.5307L9.87521 21.2908C9.99019 21.5888 10.1925 21.8452 10.4557 22.0263C10.7188 22.2074 11.0305 22.3047 11.3499 22.3057H12.6819C13.0014 22.3047 13.313 22.2074 13.5762 22.0263C13.8393 21.8452 14.0416 21.5888 14.1566 21.2908L14.8385 19.5307L17.1536 18.1987L19.0248 18.4841C19.3364 18.5265 19.6535 18.4751 19.9358 18.3368C20.2182 18.1984 20.453 17.9792 20.6105 17.7071L21.2448 16.5971C21.4073 16.3207 21.4822 16.0014 21.4595 15.6815C21.437 15.3616 21.3177 15.0561 21.1179 14.8053L19.9286 13.3305V10.6666L21.0862 9.19184C21.286 8.94102 21.4053 8.6355 21.4278 8.3156C21.4504 7.9957 21.3756 7.67645 21.2131 7.39998L20.5788 6.28998C20.4213 6.01784 20.1865 5.79868 19.9041 5.66032C19.6218 5.52197 19.3047 5.47069 18.9931 5.51298L17.1219 5.79841L14.8068 4.46641L14.1249 2.70626C14.0099 2.40825 13.8076 2.15192 13.5445 1.97083C13.2813 1.78974 12.9696 1.69235 12.6502 1.69141H11.3499C11.0305 1.69235 10.7188 1.78974 10.4557 1.97083C10.1925 2.15192 9.99019 2.40825 9.87521 2.70626Z" stroke="white" stroke-width="1.5" stroke-linecap="round" stroke-linejoin="round"/>
<path id="Vector_2" d="M9.36309 13.7615C9.01462 13.24 8.82861 12.6268 8.82861 11.9996C8.82861 11.1584 9.16274 10.3518 9.75751 9.75702C10.3523 9.16225 11.1589 8.82812 12 8.82812C12.6273 8.82812 13.2405 9.01413 13.762 9.36261C14.2835 9.71108 14.69 10.2064 14.9301 10.7859C15.1701 11.3654 15.2329 12.0031 15.1105 12.6183C14.9882 13.2335 14.6861 13.7986 14.2426 14.2421C13.7991 14.6856 13.234 14.9877 12.6188 15.11C12.0036 15.2324 11.3659 15.1696 10.7864 14.9296C10.2069 14.6895 9.71157 14.283 9.36309 13.7615Z" stroke="white" stroke-width="1.5" stroke-linecap="round" stroke-linejoin="round"/>
</g>
</g>
</svg>
