<svg width="24" height="24" viewBox="0 0 24 24" fill="none" xmlns="http://www.w3.org/2000/svg">
<g id="Pencil">
<g id="pencil--change-edit-modify-pencil-write-writing">
<path id="Vector" d="M8.92275 20.0854L2.00488 22.0224L3.94189 15.1046L16.6093 2.49867C16.7524 2.35225 16.9235 2.23591 17.1121 2.15648C17.3009 2.07705 17.5037 2.03613 17.7084 2.03613C17.9132 2.03613 18.116 2.07705 18.3048 2.15648C18.4934 2.23591 18.6645 2.35225 18.8076 2.49867L21.5286 5.23507C21.6727 5.37798 21.7871 5.54802 21.8652 5.73534C21.9433 5.92267 21.9834 6.12361 21.9834 6.32655C21.9834 6.52949 21.9433 6.73043 21.8652 6.91777C21.7871 7.10511 21.6727 7.27513 21.5286 7.41804L8.92275 20.0854Z" stroke="white" stroke-width="1.5" stroke-linecap="round" stroke-linejoin="round"/>
</g>
</g>
</svg>
