<svg width="24" height="24" viewBox="0 0 24 24" fill="none" xmlns="http://www.w3.org/2000/svg">
<g id="Component 35" opacity="0.4">
<g id="computer-pc-desktop--screen-desktop-monitor-device-electronics-display-pc-computer">
<path id="Vector 2419" d="M0.75 9.10491V15.9621C0.75 16.4167 0.930612 16.8527 1.2521 17.1742C1.57359 17.4957 2.00963 17.6763 2.46429 17.6763H12.75C13.2047 17.6763 13.6407 17.4957 13.9622 17.1742C14.2837 16.8527 14.4643 16.4167 14.4643 15.9621V9.10491C14.4643 8.65025 14.2837 8.21422 13.9622 7.89273C13.6407 7.57124 13.2047 7.39062 12.75 7.39062H2.46429C2.00963 7.39062 1.57359 7.57124 1.2521 7.89273C0.930612 8.21422 0.75 8.65025 0.75 9.10491Z" stroke="white" stroke-width="1.5" stroke-linecap="round" stroke-linejoin="round"/>
<path id="Vector 2420" d="M5.03125 21.1094H10.1741" stroke="white" stroke-width="1.5" stroke-linecap="round" stroke-linejoin="round"/>
<path id="Vector 2421" d="M7.60938 21.1083V17.6797" stroke="white" stroke-width="1.5" stroke-linecap="round" stroke-linejoin="round"/>
<path id="Vector 2422" d="M12.75 3.96429V3.10714C12.75 2.87981 12.8403 2.6618 13.0011 2.50105C13.1618 2.34031 13.3798 2.25 13.6071 2.25H22.1786C22.4059 2.25 22.6239 2.34031 22.7847 2.50105C22.9454 2.6618 23.0357 2.87981 23.0357 3.10714V20.25C23.0357 20.4773 22.9454 20.6953 22.7847 20.8561C22.6239 21.0168 22.4059 21.1071 22.1786 21.1071H15.3214" stroke="white" stroke-width="1.5" stroke-linecap="round" stroke-linejoin="round"/>
<g id="Group 100">
<path id="Ellipse 81" d="M19.394 6.3231C19.3371 6.3231 19.2826 6.30053 19.2425 6.26034C19.2023 6.22015 19.1797 6.16565 19.1797 6.10882C19.1797 6.05198 19.2023 5.99748 19.2425 5.95729C19.2826 5.91711 19.3371 5.89453 19.394 5.89453" stroke="white" stroke-width="1.5" stroke-linecap="round" stroke-linejoin="round"/>
<path id="Ellipse 82" d="M19.3906 6.3231C19.4475 6.3231 19.502 6.30053 19.5421 6.26034C19.5823 6.22015 19.6049 6.16565 19.6049 6.10882C19.6049 6.05198 19.5823 5.99748 19.5421 5.95729C19.502 5.91711 19.4475 5.89453 19.3906 5.89453" stroke="white" stroke-width="1.5" stroke-linecap="round" stroke-linejoin="round"/>
</g>
<path id="Vector 2423" d="M17.8906 9.96484H23.0335" stroke="white" stroke-width="1.5" stroke-linecap="round" stroke-linejoin="round"/>
</g>
</g>
</svg>
