<svg width="24" height="24" viewBox="0 0 24 24" fill="none" xmlns="http://www.w3.org/2000/svg">
<g id="Image Picture Landscape 1" clip-path="url(#clip0_7158_9762)">
<g id="Group">
<path id="Vector" d="M2.59263 23.1445L21.4498 23.1445C22.3966 23.1445 23.1641 22.377 23.1641 21.4302L23.1641 2.5731C23.1641 1.62633 22.3966 0.858816 21.4498 0.858816L2.59263 0.858816C1.64586 0.858816 0.878347 1.62633 0.878347 2.5731L0.878347 21.4302C0.878347 22.377 1.64586 23.1445 2.59263 23.1445Z" stroke="white" stroke-width="1.5" stroke-linecap="round" stroke-linejoin="round"/>
<path id="Vector_2" d="M15.8594 11.1445C17.5162 11.1445 18.8594 9.80139 18.8594 8.14453C18.8594 6.48768 17.5162 5.14453 15.8594 5.14453C14.2025 5.14453 12.8594 6.48768 12.8594 8.14453C12.8594 9.80139 14.2025 11.1445 15.8594 11.1445Z" stroke="white" stroke-width="1.5" stroke-linecap="round" stroke-linejoin="round"/>
<path id="Vector_3" d="M16.1165 23.1444C15.5645 20.2044 13.9859 17.5562 11.6623 15.6722C9.33878 13.7882 6.42142 12.7911 3.4308 12.8587C2.56796 12.8564 1.70689 12.9368 0.859375 13.0987" stroke="white" stroke-width="1.5" stroke-linecap="round" stroke-linejoin="round"/>
<path id="Vector_4" d="M23.1436 16.992C21.7629 16.5257 20.3152 16.2883 18.8579 16.2891C17.0132 16.2851 15.1872 16.6585 13.4922 17.3862" stroke="white" stroke-width="1.5" stroke-linecap="round" stroke-linejoin="round"/>
</g>
</g>
<defs>
<clipPath id="clip0_7158_9762">
<rect width="24" height="24" fill="white"/>
</clipPath>
</defs>
</svg>
