<svg width="24" height="24" viewBox="0 0 24 24" fill="none" xmlns="http://www.w3.org/2000/svg">
<g id="Frame" opacity="0.4">
<g id="Group 1171274927">
<path id="Vector" d="M22.2139 4.7741H6.21178L5.60793 2.20771C5.60793 1.90578 5.306 1.60386 4.85311 1.60386L2.13576 1H1.98479C0.777083 1 0.626119 2.6606 1.83383 2.81157L3.94732 3.26446L5.00407 11.2655H22.6668L23.1197 5.98181C23.2707 5.37795 22.8178 4.7741 22.2139 4.7741ZM5.75889 15.9454H21.4591C21.912 15.9454 22.2139 15.6435 22.3649 15.1906L22.5159 13.681H5.306L5.75889 15.9454Z" stroke="white" stroke-width="0.943524" stroke-miterlimit="10" stroke-linejoin="round"/>
<path id="Vector_2" d="M22.8749 11.2656L22.7296 13.681H5.12332L4.78906 11.2656H22.8749Z" fill="white" stroke="white" stroke-width="0.514649" stroke-miterlimit="10" stroke-linejoin="round"/>
<path id="Vector_3" d="M18.1369 21.6801C19.3042 21.6801 20.2504 20.7339 20.2504 19.5666C20.2504 18.3994 19.3042 17.4531 18.1369 17.4531C16.9697 17.4531 16.0234 18.3994 16.0234 19.5666C16.0234 20.7339 16.9697 21.6801 18.1369 21.6801Z" stroke="white" stroke-width="0.943524" stroke-miterlimit="10" stroke-linejoin="round"/>
<path id="Vector_4" d="M9.38693 21.6801C10.5542 21.6801 11.5004 20.7339 11.5004 19.5666C11.5004 18.3994 10.5542 17.4531 9.38693 17.4531C8.21968 17.4531 7.27344 18.3994 7.27344 19.5666C7.27344 20.7339 8.21968 21.6801 9.38693 21.6801Z" stroke="white" stroke-width="0.943524" stroke-miterlimit="10" stroke-linejoin="round"/>
</g>
</g>
</svg>
