<svg width="244" height="244" viewBox="0 0 244 244" fill="none" xmlns="http://www.w3.org/2000/svg">
<g id="roomba, wireless, vaccuum, cleaner, connect, sensor, electronic, device">
<path id="Vector" d="M233.842 129.628C233.8 152.894 226.49 175.565 212.933 194.473C199.377 213.38 180.251 227.58 158.23 235.087C136.208 242.593 112.392 243.032 90.1092 236.341C67.8265 229.65 48.1911 216.165 33.9475 197.769C19.7038 179.373 11.5639 156.986 10.6653 133.738C9.7668 110.49 16.1546 87.542 28.9358 68.1016C41.717 48.6612 60.2529 33.7001 81.9528 25.3094C103.653 16.9187 127.432 15.5177 149.967 21.3023C173.98 27.5024 195.251 41.5086 210.434 61.1181C225.617 80.7275 233.852 104.828 233.842 129.628Z" stroke="url(#paint0_linear_6356_138824)" stroke-width="2.0435" stroke-linecap="round" stroke-linejoin="round"/>
<path id="Vector_2" d="M121.996 226.214C175.337 226.214 218.579 182.972 218.579 129.63C218.579 76.2887 175.337 33.0469 121.996 33.0469C68.6544 33.0469 25.4126 76.2887 25.4126 129.63C25.4126 182.972 68.6544 226.214 121.996 226.214Z" stroke="url(#paint1_linear_6356_138824)" stroke-width="2.0435" stroke-linecap="round" stroke-linejoin="round"/>
<path id="Vector_3" d="M122 91.5C130.422 91.5 137.25 84.6723 137.25 76.25C137.25 67.8277 130.422 61 122 61C113.578 61 106.75 67.8277 106.75 76.25C106.75 84.6723 113.578 91.5 122 91.5Z" stroke="url(#paint2_linear_6356_138824)" stroke-width="2.0435" stroke-linecap="round" stroke-linejoin="round"/>
<path id="Vector_4" d="M149.954 21.2947V104.204C149.954 111.619 147.009 118.73 141.765 123.973C136.522 129.217 129.411 132.162 121.996 132.162C114.581 132.162 107.47 129.217 102.226 123.973C96.9832 118.73 94.0376 111.619 94.0376 104.204V21.2947C112.383 16.6179 131.609 16.6179 149.954 21.2947Z" stroke="url(#paint3_linear_6356_138824)" stroke-width="2.0435" stroke-linecap="round" stroke-linejoin="round"/>
<path id="Vector_5" d="M94.0376 76.25H40.6626" stroke="url(#paint4_linear_6356_138824)" stroke-width="2.0435" stroke-linecap="round" stroke-linejoin="round"/>
<path id="Vector_6" d="M152.5 76.25L198.25 76.25" stroke="url(#paint5_linear_6356_138824)" stroke-width="2.0435" stroke-linecap="round" stroke-linejoin="round"/>
<path id="Vector_7" d="M121.996 114.38C124.803 114.38 127.079 112.104 127.079 109.296C127.079 106.489 124.803 104.213 121.996 104.213C119.188 104.213 116.913 106.489 116.913 109.296C116.913 112.104 119.188 114.38 121.996 114.38Z" stroke="url(#paint6_linear_6356_138824)" stroke-width="2.0435" stroke-linecap="round" stroke-linejoin="round"/>
<path id="Vector_8" d="M134.712 109.287H139.796" stroke="url(#paint7_linear_6356_138824)" stroke-width="2.0435" stroke-linecap="round" stroke-linejoin="round"/>
<path id="Vector_9" d="M104.212 109.287H109.296" stroke="url(#paint8_linear_6356_138824)" stroke-width="2.0435" stroke-linecap="round" stroke-linejoin="round"/>
<path id="Vector_10" d="M122.004 203.333C127.619 203.333 132.171 198.782 132.171 193.167C132.171 187.552 127.619 183 122.004 183C116.389 183 111.837 187.552 111.837 193.167C111.837 198.782 116.389 203.333 122.004 203.333Z" stroke="url(#paint9_linear_6356_138824)" stroke-width="2.0435" stroke-linecap="round" stroke-linejoin="round"/>
</g>
<defs>
<linearGradient id="paint0_linear_6356_138824" x1="122.002" y1="-18.3027" x2="122.212" y2="241.057" gradientUnits="userSpaceOnUse">
<stop stop-color="white"/>
<stop offset="1" stop-color="white" stop-opacity="0"/>
</linearGradient>
<linearGradient id="paint1_linear_6356_138824" x1="122" y1="-3.05273" x2="121.996" y2="226.214" gradientUnits="userSpaceOnUse">
<stop stop-color="white"/>
<stop offset="1" stop-color="white" stop-opacity="0"/>
</linearGradient>
<linearGradient id="paint2_linear_6356_138824" x1="122" y1="61" x2="122" y2="91.5" gradientUnits="userSpaceOnUse">
<stop stop-color="white"/>
<stop offset="1" stop-color="white" stop-opacity="0"/>
</linearGradient>
<linearGradient id="paint3_linear_6356_138824" x1="121.996" y1="17.7871" x2="121.996" y2="132.162" gradientUnits="userSpaceOnUse">
<stop stop-color="white"/>
<stop offset="1" stop-color="white" stop-opacity="0"/>
</linearGradient>
<linearGradient id="paint4_linear_6356_138824" x1="85.3999" y1="76.75" x2="27.781" y2="72.1253" gradientUnits="userSpaceOnUse">
<stop stop-color="white"/>
<stop offset="1" stop-color="white" stop-opacity="0"/>
</linearGradient>
<linearGradient id="paint5_linear_6356_138824" x1="154.025" y1="76.75" x2="194.998" y2="85.6763" gradientUnits="userSpaceOnUse">
<stop stop-color="white"/>
<stop offset="1" stop-color="white" stop-opacity="0"/>
</linearGradient>
<linearGradient id="paint6_linear_6356_138824" x1="121.996" y1="104.213" x2="121.996" y2="114.38" gradientUnits="userSpaceOnUse">
<stop stop-color="white"/>
<stop offset="1" stop-color="white" stop-opacity="0"/>
</linearGradient>
<linearGradient id="paint7_linear_6356_138824" x1="137.254" y1="109.287" x2="137.254" y2="110.287" gradientUnits="userSpaceOnUse">
<stop stop-color="white"/>
<stop offset="1" stop-color="white" stop-opacity="0"/>
</linearGradient>
<linearGradient id="paint8_linear_6356_138824" x1="106.754" y1="109.287" x2="106.754" y2="110.287" gradientUnits="userSpaceOnUse">
<stop stop-color="white"/>
<stop offset="1" stop-color="white" stop-opacity="0"/>
</linearGradient>
<linearGradient id="paint9_linear_6356_138824" x1="122.004" y1="183" x2="122.004" y2="203.333" gradientUnits="userSpaceOnUse">
<stop stop-color="white"/>
<stop offset="1" stop-color="white" stop-opacity="0"/>
</linearGradient>
</defs>
</svg>
