<svg width="74" height="40" viewBox="0 0 74 40" fill="none" xmlns="http://www.w3.org/2000/svg">
<path d="M48 15C48 18.3137 45.3137 21 42 21C38.6863 21 36 18.3137 36 15C36 11.6863 38.6863 9 42 9C45.3137 9 48 11.6863 48 15Z" fill="white"/>
<path d="M44.1761 16.9667C44.2672 16.9667 44.3395 16.9934 44.3929 17.0467C44.4463 17.1001 44.473 17.1693 44.4729 17.2541L44.4726 17.7633L39.9657 17.766L39.9659 17.4784C39.9659 17.4187 39.9785 17.3574 40.0037 17.2946C40.0289 17.2317 40.0682 17.1735 40.1217 17.1201L42.287 14.9455C42.4663 14.7631 42.6298 14.5885 42.7776 14.4219C42.9255 14.2521 43.0513 14.0823 43.1551 13.9125C43.2589 13.7427 43.3392 13.5714 43.3959 13.3985C43.4526 13.2225 43.481 13.0354 43.4811 12.8374C43.4813 12.6394 43.4499 12.4666 43.3872 12.3189C43.3244 12.1681 43.2381 12.044 43.1281 11.9467C43.0213 11.8493 42.8941 11.7771 42.7464 11.73C42.5987 11.6798 42.4401 11.6548 42.2703 11.6549C42.0975 11.655 41.9387 11.6802 41.7941 11.7306C41.6495 11.781 41.5206 11.8518 41.4074 11.943C41.2974 12.0311 41.2046 12.1364 41.1291 12.259C41.0536 12.3816 41.0001 12.5168 40.9685 12.6645C40.9307 12.7746 40.8788 12.8485 40.8128 12.8862C40.7499 12.9208 40.6603 12.9303 40.5441 12.9147L40.1057 12.8395C40.1499 12.5315 40.2349 12.2596 40.3608 12.0238C40.4898 11.7848 40.6502 11.5852 40.8421 11.4248C41.037 11.2644 41.2587 11.1432 41.507 11.0614C41.7554 10.9764 42.0241 10.9338 42.3132 10.9336C42.5992 10.9334 42.8664 10.9757 43.1146 11.0604C43.3628 11.1451 43.578 11.2691 43.7602 11.4324C43.9424 11.5926 44.0852 11.7889 44.1888 12.0214C44.2924 12.254 44.344 12.5179 44.3439 12.8134C44.3437 13.0648 44.3058 13.2989 44.2302 13.5158C44.1547 13.7296 44.0524 13.934 43.9234 14.1289C43.7944 14.3238 43.645 14.5141 43.4752 14.6996C43.3085 14.8851 43.1308 15.0722 42.9421 15.2609L41.1589 17.0817C41.2846 17.0471 41.4119 17.0203 41.5408 17.0013C41.6697 16.9793 41.7938 16.9682 41.9132 16.9681L44.1761 16.9667Z" fill="#2F3134"/>
<path d="M33.8281 30.3086H36.9996" stroke="white" stroke-linecap="round" stroke-linejoin="round"/>
<path d="M35.4167 12.0625C33.7345 12.0625 32.1212 12.7308 30.9317 13.9203C29.7422 15.1098 29.0739 16.7231 29.0739 18.4054V23.9554C29.0739 24.5862 28.8233 25.1913 28.3772 25.6373C27.9312 26.0834 27.3261 26.3339 26.6953 26.3339H44.1382C43.5074 26.3339 42.9023 26.0834 42.4562 25.6373C42.0101 25.1913 41.7596 24.5862 41.7596 23.9554V20.7839" stroke="white" stroke-linecap="round" stroke-linejoin="round"/>
</svg>
