<svg width="40" height="41" viewBox="0 0 40 41" fill="none" xmlns="http://www.w3.org/2000/svg">
<g id="iZak logo" clip-path="url(#clip0_7158_9636)">
<g id="Vector">
<path d="M18.6825 20.2473C19.5457 19.214 22.1843 16.3491 23.3437 14.9629C24.0208 14.1513 25.6005 12.3339 25.6005 12.3339L25.61 12.3235L25.7698 12.1187C25.8928 11.9668 26.0298 11.8269 26.1789 11.7007L26.3086 11.5922L26.3585 11.5591L26.4092 11.5271C26.4327 11.512 26.4572 11.4988 26.4807 11.4855C26.4914 11.479 26.5023 11.473 26.5136 11.4676C26.5362 11.4544 26.5578 11.4431 26.5813 11.4318L26.634 11.4053C26.8152 11.3194 27.0077 11.26 27.2057 11.2289C27.3094 11.2134 27.414 11.2055 27.5188 11.2053C28.3031 11.2053 29.0036 11.6545 29.4588 12.3556C30.4198 9.61902 24.4975 6.26532 21.6539 9.97571L13.0132 20.6889L14.0983 21.9722C14.0983 21.9722 16.6645 22.6583 18.675 20.251" fill="#272727"/>
<path d="M18.6825 20.2473C19.5457 19.214 22.1843 16.3491 23.3437 14.9629C24.0208 14.1513 25.6005 12.3339 25.6005 12.3339L25.61 12.3235L25.7698 12.1187C25.8928 11.9668 26.0298 11.8269 26.1789 11.7007L26.3086 11.5922L26.3585 11.5591L26.4092 11.5271C26.4327 11.512 26.4572 11.4988 26.4807 11.4855C26.4914 11.479 26.5023 11.473 26.5136 11.4676C26.5362 11.4544 26.5578 11.4431 26.5813 11.4318L26.634 11.4053C26.8152 11.3194 27.0077 11.26 27.2057 11.2289C27.3094 11.2134 27.414 11.2055 27.5188 11.2053C28.3031 11.2053 29.0036 11.6545 29.4588 12.3556C30.4198 9.61902 24.4975 6.26532 21.6539 9.97571L13.0132 20.6889L14.0983 21.9722C14.0983 21.9722 16.6645 22.6583 18.675 20.251" stroke="#0B82F9" stroke-width="0.64554" stroke-miterlimit="10"/>
</g>
<path id="Vector_2" d="M11.5368 17.9385C12.1772 16.5127 12.2167 16.6599 12.8533 15.2341C13.1304 14.6169 13.4072 13.9998 13.6836 13.3826C14.8923 10.6908 16.0997 7.99855 17.3058 5.30603C17.3658 5.22291 17.4207 5.13625 17.4704 5.04653C17.4854 5.02199 17.4986 4.99745 17.5117 4.97197C17.5969 4.80943 17.6646 4.63831 17.7139 4.46147C17.729 4.41145 17.7421 4.3605 17.7525 4.30954C17.7619 4.28689 17.7722 4.26519 17.7826 4.24254C17.7948 4.21989 17.8079 4.19819 17.8211 4.17554C17.8343 4.15289 17.8521 4.12364 17.8691 4.09816C17.886 4.07268 17.902 4.04815 17.9189 4.02267L17.9706 3.94907C17.9885 3.92454 18.0063 3.9 18.0251 3.87641C18.044 3.85282 18.0515 3.84149 18.0665 3.82356L18.0712 3.81696L18.1117 3.76883L18.1512 3.72259L18.2001 3.66881C18.217 3.64993 18.2349 3.63012 18.2537 3.61219C18.2725 3.59426 18.2969 3.56784 18.3185 3.54708C18.3402 3.52632 18.3609 3.5065 18.3825 3.48668C18.4041 3.46687 18.4257 3.44705 18.4483 3.42818C18.4709 3.40931 18.4925 3.38949 18.516 3.37062L18.5847 3.31589L18.6552 3.26304C18.6966 3.23285 18.7389 3.20359 18.7821 3.17623C18.8066 3.15924 18.832 3.1432 18.8583 3.1281C18.8903 3.10829 18.9213 3.08942 18.9523 3.07149L19.0144 3.03846L19.0774 3.00637L19.1648 2.96391L19.2062 2.94598C19.2335 2.93277 19.2608 2.92144 19.289 2.91012L19.3548 2.8837C19.582 2.79646 19.8187 2.7369 20.0601 2.70629C20.188 2.6908 20.3167 2.68292 20.4456 2.6827C20.907 2.67929 21.3632 2.78065 21.7801 2.9792C22.197 3.17774 22.5637 3.46834 22.8529 3.82923C23.0837 4.2092 23.2776 4.61051 23.4321 5.02765C23.5509 5.35096 23.6452 5.68281 23.7142 6.02036C22.6209 8.45747 21.5276 10.8952 20.4343 13.3336C19.588 15.2209 18.7417 17.1081 17.8954 18.9954C17.8202 19.1615 17.7456 19.3276 17.6716 19.4937C17.5681 19.7233 17.4654 19.9529 17.3632 20.1825C16.8403 21.3479 15.7204 22.1566 14.4481 22.2123C14.3945 22.2123 14.3409 22.2123 14.2873 22.2123C13.3075 22.2123 12.3211 22.0604 11.6675 21.4272C11.2481 21.0214 10.6952 20.3288 10.857 19.6343L11.5368 17.9385Z" fill="#0B82F9"/>
<g id="Vector_3">
<path d="M15.8312 3.16458C18.6692 -0.545815 24.5914 2.80599 23.6313 5.54444C23.1762 4.84332 22.4756 4.39414 21.6904 4.39414C21.5859 4.39438 21.4816 4.40227 21.3783 4.41773C21.1803 4.44917 20.9879 4.50858 20.8065 4.59419L20.7529 4.62062C20.7304 4.63194 20.7087 4.64327 20.6862 4.65648L20.6523 4.67441L20.5818 4.71687L20.531 4.74801L20.4802 4.78103L20.3514 4.8905C20.2019 5.01586 20.0649 5.15555 19.9424 5.30759L19.7759 5.5133L19.7656 5.52368C19.7656 5.52368 18.1914 7.34114 17.5088 8.15361L14.0295 12.3179C13.1663 13.3509 12.303 14.3848 11.4398 15.4196L11.4097 15.4564L10.6763 16.334C10.5434 16.4316 10.399 16.5124 10.2465 16.5747C10.0255 16.6648 9.78925 16.7112 9.55069 16.7115C8.31696 16.7115 7.31738 15.4791 7.31738 13.9579C7.31738 13.9079 7.31738 13.8579 7.31738 13.8079C7.32455 13.6277 7.34688 13.4484 7.38414 13.2719L9.05419 11.2714C9.07205 11.2497 9.08993 11.227 9.10873 11.2053L11.4342 8.42066L11.6796 8.12624L15.9525 3.00888" fill="#272727"/>
<path d="M15.8312 3.16458C18.6692 -0.545816 24.5914 2.80599 23.6313 5.54444C23.1762 4.84332 22.4756 4.39414 21.6904 4.39414C21.5859 4.39438 21.4816 4.40227 21.3783 4.41773C21.1803 4.44917 20.9879 4.50858 20.8065 4.59419L20.7529 4.62062C20.7304 4.63194 20.7087 4.64327 20.6862 4.65648L20.6523 4.67441L20.5818 4.71687L20.531 4.74801L20.4802 4.78103L20.3514 4.8905C20.2019 5.01586 20.0649 5.15555 19.9424 5.30759L19.7759 5.5133L19.7656 5.52368C19.7656 5.52368 18.1914 7.34114 17.5088 8.15361L14.0295 12.3179C13.1663 13.3509 12.303 14.3848 11.4398 15.4196L11.4097 15.4564L10.6763 16.334C10.5434 16.4316 10.399 16.5124 10.2465 16.5747C10.0255 16.6648 9.78925 16.7112 9.55069 16.7115C8.31696 16.7115 7.31738 15.4791 7.31738 13.9579C7.31738 13.9079 7.31738 13.8579 7.31738 13.8079C7.32455 13.6277 7.34688 13.4484 7.38414 13.2719L9.05419 11.2714C9.07205 11.2497 9.08993 11.227 9.10873 11.2053L11.4342 8.42066L11.6796 8.12624L15.9525 3.00888" stroke="#0B82F9" stroke-width="0.64554" stroke-miterlimit="10"/>
</g>
<path id="Vector_4" d="M7.88906 13.8259C7.88906 15.3537 8.89333 16.5917 10.1318 16.5917C10.3716 16.5917 10.6093 16.5449 10.8314 16.454C9.97941 17.2089 8.32349 17.8185 6.47667 17.8185C4.62984 17.8185 2.02133 15.7708 2.91654 12.0906C2.91654 12.0906 3.13657 11.1988 3.29267 10.7695C3.91894 9.05487 4.64112 7.36669 5.26738 5.6521L5.43382 5.19727H10.8163C10.7392 5.40864 10.6621 5.62096 10.5841 5.83233C9.98789 7.46861 9.01557 9.82205 8.43726 11.1988C8.14546 11.9025 7.96067 12.6462 7.88906 13.4051V13.8259Z" fill="#0B82F9"/>
<path id="Vector_5" d="M8.00238 4.645C9.27734 4.645 10.3109 3.6078 10.3109 2.32836C10.3109 1.04891 9.27734 0.0117188 8.00238 0.0117188C6.72741 0.0117188 5.69385 1.04891 5.69385 2.32836C5.69385 3.6078 6.72741 4.645 8.00238 4.645Z" fill="#0B82F9"/>
<path id="Vector_6" d="M29.4355 15.5638C27.5087 20.2622 22.7111 31.3792 22.256 32.472C22.2372 32.5182 22.2203 32.5663 22.2033 32.6097C22.1535 32.7485 22.0266 33.0127 21.9212 33.2382V33.2439C20.6612 36.6636 17.7057 39.1982 14.1352 39.7144C13.7636 39.7688 13.3889 39.8004 13.0134 39.8088C12.909 39.8088 11.2465 37.9809 11.1431 37.9687C11.1591 37.9328 11.3415 37.8413 11.6274 37.6856C13.3141 36.7468 14.6424 35.2724 15.4037 33.4939C15.5918 33.0492 15.7824 32.6053 15.9755 32.1625C16.0099 32.022 16.0568 31.8849 16.1156 31.7529L18.7814 25.808L18.9639 25.4013C19.6691 23.8282 23.2358 16.0847 23.9843 14.4182L23.9006 14.406C24.131 12.8301 27.1975 10.0652 28.7678 10.2936C30.4068 10.0011 29.7298 14.8561 29.4355 15.5638Z" fill="#0B82F9"/>
<path id="Vector_7" d="M38.1149 17.3115C38.1149 17.3115 18.5445 29.107 13.4159 33.6205C13.0985 33.8942 12.8628 34.2509 12.7351 34.6509C12.2875 36.1136 13.494 37.5432 16.7729 38.6557C11.2625 41.2913 8.19421 39.0747 7.47673 36.0862C6.89655 33.6743 7.99017 31.1661 10.0956 29.8648C14.8057 26.9518 29.7825 17.9976 30.5009 17.3464C34.0723 17.3115 38.1149 17.3115 38.1149 17.3115Z" fill="#272727" stroke="#0B82F9" stroke-width="0.64554" stroke-miterlimit="10"/>
</g>
<defs>
<clipPath id="clip0_7158_9636">
<rect width="40" height="40" fill="white" transform="translate(0.0078125 0.0117188)"/>
</clipPath>
</defs>
</svg>
