<svg width="28" height="28" viewBox="0 0 28 28" fill="none" xmlns="http://www.w3.org/2000/svg">
<g id="Text To Speech 7" clip-path="url(#clip0_7158_9675)">
<path id="Vector" d="M1.40039 9.0999C1.40039 7.05773 2.21164 5.09921 3.65567 3.65518C5.0997 2.21115 7.05822 1.3999 9.10039 1.3999" stroke="white" stroke-width="1.5" stroke-linecap="round" stroke-linejoin="round"/>
<path id="Vector_2" d="M18.9004 1.3999C20.9426 1.3999 22.9011 2.21115 24.3451 3.65518C25.7891 5.09921 26.6004 7.05773 26.6004 9.0999" stroke="white" stroke-width="1.5" stroke-linecap="round" stroke-linejoin="round"/>
<path id="Vector_3" d="M7.875 9.62482C7.875 9.06786 8.09625 8.53372 8.49008 8.13989C8.8839 7.74607 9.41805 7.52482 9.975 7.52482" stroke="white" stroke-width="1.5" stroke-linecap="round" stroke-linejoin="round"/>
<path id="Vector_4" d="M4.94727 8.72422C4.94727 7.65672 5.37133 6.63295 6.12616 5.87811C6.881 5.12328 7.90477 4.69922 8.97227 4.69922" stroke="white" stroke-width="1.5" stroke-linecap="round" stroke-linejoin="round"/>
<path id="Vector_5" d="M18.2851 7.52482C18.8421 7.52482 19.3762 7.74607 19.77 8.13989C20.1639 8.53372 20.3851 9.06786 20.3851 9.62482" stroke="white" stroke-width="1.5" stroke-linecap="round" stroke-linejoin="round"/>
<path id="Vector_6" d="M19.25 4.73438C20.3175 4.73437 21.3413 5.15844 22.0961 5.91327C22.8509 6.6681 23.275 7.69188 23.275 8.75937" stroke="white" stroke-width="1.5" stroke-linecap="round" stroke-linejoin="round"/>
<path id="Vector_7" d="M20.3002 26.5998L15.5411 17.0815M7.7002 26.5998L12.4593 17.0815" stroke="white" stroke-width="1.5" stroke-linecap="round" stroke-linejoin="round"/>
<path id="Vector_8" d="M9.09961 25.5498H18.8996" stroke="white" stroke-width="1.5" stroke-linecap="round" stroke-linejoin="round"/>
<path id="Vector_9" d="M10.5 21.875H17.5" stroke="white" stroke-width="1.5" stroke-linecap="round" stroke-linejoin="round"/>
<path id="Vector_10" d="M10.5 14C10.5 14.9283 10.8687 15.8185 11.5251 16.4749C12.1815 17.1312 13.0717 17.5 14 17.5C14.9283 17.5 15.8185 17.1312 16.4749 16.4749C17.1313 15.8185 17.5 14.9283 17.5 14C17.5 13.0717 17.1313 12.1815 16.4749 11.5251C15.8185 10.8687 14.9283 10.5 14 10.5C13.0717 10.5 12.1815 10.8687 11.5251 11.5251C10.8687 12.1815 10.5 13.0717 10.5 14Z" stroke="white" stroke-width="1.5" stroke-linecap="round" stroke-linejoin="round"/>
</g>
<defs>
<clipPath id="clip0_7158_9675">
<rect width="28" height="28" fill="white"/>
</clipPath>
</defs>
</svg>
