<svg width="16" height="17" viewBox="0 0 16 17" fill="none" xmlns="http://www.w3.org/2000/svg">
<g id="Hardware Nail Round Head">
<path id="Vector" d="M11.5001 8L8.50012 5L1.79279 11.7073C1.60532 11.8949 1.5 12.1492 1.5 12.4143C1.5 12.6795 1.60532 12.9338 1.79279 13.1213L3.37879 14.7073C3.56631 14.8948 3.82062 15.0001 4.08579 15.0001C4.35095 15.0001 4.60526 14.8948 4.79279 14.7073L11.5001 8Z" stroke="white" stroke-width="1.1" stroke-linecap="round" stroke-linejoin="round"/>
<path id="Vector_2" d="M7.19315 3.69295C7.14311 3.64275 7.10428 3.5825 7.07923 3.5162C7.05418 3.44989 7.04347 3.37902 7.04782 3.30827C7.05217 3.23752 7.07147 3.1685 7.10445 3.10576C7.13743 3.04302 7.18334 2.98798 7.23915 2.94428C8.10513 2.27264 9.18641 1.94005 10.2802 2.00889C11.3739 2.07774 12.4049 2.54329 13.1799 3.31822C13.9548 4.09315 14.4204 5.12419 14.4892 6.21794C14.558 7.31168 14.2255 8.39297 13.5538 9.25895C13.5102 9.31494 13.4553 9.36102 13.3925 9.39413C13.3298 9.42723 13.2607 9.4466 13.1899 9.45096C13.1191 9.45531 13.0481 9.44454 12.9818 9.41936C12.9155 9.39419 12.8552 9.35519 12.8051 9.30495L7.19315 3.69295Z" stroke="white" stroke-width="1.1" stroke-linecap="round" stroke-linejoin="round"/>
<path id="Vector_3" d="M2.5 11H8.5" stroke="white" stroke-width="1.1" stroke-linecap="round" stroke-linejoin="round"/>
<path id="Vector_4" d="M4.5 9H10.5" stroke="white" stroke-width="1.1" stroke-linecap="round" stroke-linejoin="round"/>
</g>
</svg>
