<svg width="64" height="64" viewBox="0 0 64 64" fill="none" xmlns="http://www.w3.org/2000/svg">
<g id="Wifi Disabled" clip-path="url(#clip0_6356_138087)">
<g id="wifi-disabled--wireless-wifi-internet-server-network-disabled-off-offline-connection">
<path id="Vector 2432" d="M2.28125 2.28516L61.7098 61.7137" stroke="white" stroke-width="4" stroke-linecap="round" stroke-linejoin="round"/>
<path id="Vector" d="M31.9964 60.5709C35.3038 60.5709 37.985 57.8898 37.985 54.5823C37.985 51.2749 35.3038 48.5938 31.9964 48.5938C28.689 48.5938 26.0078 51.2749 26.0078 54.5823C26.0078 57.8898 28.689 60.5709 31.9964 60.5709Z" stroke="white" stroke-width="4" stroke-linecap="round" stroke-linejoin="round"/>
<path id="Vector_2" d="M20.7031 41.1414C22.1896 39.6153 23.9668 38.4024 25.9296 37.5742" stroke="white" stroke-width="4" stroke-linecap="round" stroke-linejoin="round"/>
<path id="Vector_3" d="M10.7812 33.4164C13.5639 30.6175 16.5279 28.9102 16.5279 28.9102" stroke="white" stroke-width="4" stroke-linecap="round" stroke-linejoin="round"/>
<path id="Vector_4" d="M25.3672 25.3399C25.3672 25.3399 28.0688 24.5859 32.0156 24.5859C35.9624 24.5859 39.8703 25.3662 43.5144 26.8819C47.1585 28.3976 50.4673 30.6188 53.2499 33.4177" stroke="white" stroke-width="4" stroke-linecap="round" stroke-linejoin="round"/>
<path id="Vector_5" d="M15.9141 15.8016C21.0125 13.689 26.4773 12.6016 31.9962 12.6016C37.515 12.6016 42.9798 13.689 48.0785 15.8016C53.1766 17.9142 57.8092 21.0107 61.7105 24.9142" stroke="white" stroke-width="4" stroke-linecap="round" stroke-linejoin="round"/>
<path id="Vector_6" d="M2.28125 24.9141C3.92963 23.2648 5.62712 21.9105 7.65885 20.3867" stroke="white" stroke-width="4" stroke-linecap="round" stroke-linejoin="round"/>
</g>
</g>
<defs>
<clipPath id="clip0_6356_138087">
<rect width="64" height="64" fill="white"/>
</clipPath>
</defs>
</svg>
