<svg width="60" height="60" viewBox="0 0 60 60" fill="none" xmlns="http://www.w3.org/2000/svg">
<g id="Padlock-Square-1--Streamline-Core">
<g id="Padlock-Square-1--Streamline-Core_2">
<path id="Vector" d="M47.8255 24.0723H12.1469C9.95751 24.0723 8.18262 25.8472 8.18262 28.0366V51.8223C8.18262 54.0117 9.95751 55.7865 12.1469 55.7865H47.8255C50.015 55.7865 51.7898 54.0117 51.7898 51.8223V28.0366C51.7898 25.8472 50.015 24.0723 47.8255 24.0723Z" stroke="url(#paint0_linear_6364_143480)" stroke-width="2" stroke-linecap="round" stroke-linejoin="round"/>
<path id="Vector_2" d="M43.874 24.0597V18.1133C43.874 14.4334 42.4124 10.9042 39.8101 8.30219C37.2081 5.70011 33.6789 4.23828 29.999 4.23828C26.3191 4.23828 22.79 5.70011 20.1879 8.30219C17.5859 10.9042 16.124 14.4334 16.124 18.1133V24.0597" stroke="url(#paint1_linear_6364_143480)" stroke-width="2" stroke-linecap="round" stroke-linejoin="round"/>
<path id="Vector_3" d="M29.9997 41.9057C31.0944 41.9057 31.9819 41.0182 31.9819 39.9235C31.9819 38.8289 31.0944 37.9414 29.9997 37.9414C28.905 37.9414 28.0176 38.8289 28.0176 39.9235C28.0176 41.0182 28.905 41.9057 29.9997 41.9057Z" stroke="url(#paint2_linear_6364_143480)" stroke-width="2" stroke-linecap="round" stroke-linejoin="round"/>
</g>
</g>
<defs>
<linearGradient id="paint0_linear_6364_143480" x1="29.999" y1="-13.502" x2="29.999" y2="55.998" gradientUnits="userSpaceOnUse">
<stop offset="0.51" stop-color="white"/>
<stop offset="1" stop-color="white" stop-opacity="0"/>
</linearGradient>
<linearGradient id="paint1_linear_6364_143480" x1="22.499" y1="-36" x2="29.999" y2="26.5" gradientUnits="userSpaceOnUse">
<stop offset="0.0047054" stop-color="white" stop-opacity="0.52"/>
<stop offset="0.804849" stop-color="white" stop-opacity="0.425"/>
</linearGradient>
<linearGradient id="paint2_linear_6364_143480" x1="29.9997" y1="37.9414" x2="29.9997" y2="41.9057" gradientUnits="userSpaceOnUse">
<stop stop-color="white"/>
<stop offset="1" stop-color="white" stop-opacity="0"/>
</linearGradient>
</defs>
</svg>
